SplineFontDB: 3.2
FontName: IdenticalGothic-Bold
FullName: Identical Gothic Bold
FamilyName: Identical Gothic
Weight: Bold
Copyright: Copyright (c) 2023-2024, Zamero Type Foundry
UComments: "2023-11-11: Created with FontForge (http://fontforge.org)"
Version: 001.000
ItalicAngle: 0
UnderlinePosition: -100
UnderlineWidth: 50
Ascent: 800
Descent: 200
InvalidEm: 0
LayerCount: 2
Layer: 0 0 "Back" 1
Layer: 1 0 "Fore" 0
XUID: [1021 474 1118879153 32451]
StyleMap: 0x0000
FSType: 0
OS2Version: 0
OS2_WeightWidthSlopeOnly: 0
OS2_UseTypoMetrics: 1
CreationTime: 1699741713
ModificationTime: 1729360933
PfmFamily: 17
TTFWeight: 700
TTFWidth: 5
LineGap: 90
VLineGap: 0
OS2TypoAscent: 0
OS2TypoAOffset: 1
OS2TypoDescent: 0
OS2TypoDOffset: 1
OS2TypoLinegap: 90
OS2WinAscent: 0
OS2WinAOffset: 1
OS2WinDescent: 0
OS2WinDOffset: 1
HheadAscent: 0
HheadAOffset: 1
HheadDescent: 0
HheadDOffset: 1
OS2Vendor: 'ZAM '
Lookup: 1 0 0 "'sinf' Scientific Inferiors lookup 0" { "'sinf' Scientific Inferiors lookup 0 subtable"  } ['sinf' ('DFLT' <'dflt' > ) ]
Lookup: 1 0 0 "'sups' Superscript lookup 0" { "'sups' Superscript lookup 0 subtable" ("superior") } ['sups' ('DFLT' <'dflt' > ) ]
Lookup: 258 0 0 "'kern' Horizontal Kerning in Latin lookup 0" { "'kern' Horizontal Kerning in Latin lookup 0-1" [150,15,2] } ['kern' ('DFLT' <'dflt' > 'latn' <'dflt' > ) ]
MarkAttachClasses: 1
DEI: 91125

StartChar: I
Encoding: 73 73 0
Width: 226
Flags: W
HStem: 0 21G<40 186> 711 20G<40 186>
VStem: 40 146<0 731>
LayerCount: 2
Fore
SplineSet
40 0 m 5
 40 731 l 5
 186 731 l 5
 186 0 l 5
 40 0 l 5
EndSplineSet
EndChar

StartChar: O
Encoding: 79 79 1
Width: 608
Flags: W
HStem: -11 127<222.939 383.24> 612 127<222.939 383.24>
VStem: 30 145<167.041 560.959> 433.2 145<168.114 559.886>
LayerCount: 2
Fore
SplineSet
175 255 m 6
 175 175.704697987 207.299804688 116 303 116 c 4
 398.700195312 116 433.200195312 175.705078125 433.200195312 255 c 2
 433.200195312 473 l 2
 433.200195312 552.294921875 398.700195312 612 303 612 c 4
 207.299804688 612 175 552.295302013 175 473 c 6
 175 255 l 6
578.200195312 243 m 2
 578.200195312 100.606445312 488.200195312 -11 302.859375 -11 c 4
 117 -11 30 101.568181818 30 243 c 6
 30 485 l 6
 30 626.431818182 117 739 302.859375 739 c 4
 488.200195312 739 578.200195312 627.393554688 578.200195312 485 c 2
 578.200195312 243 l 2
EndSplineSet
EndChar

StartChar: U
Encoding: 85 85 2
Width: 625
Flags: W
HStem: -10 132<232.225 392.99> 711 20G<40 186 440.1 586.1>
VStem: 40 146<173.717 731> 440.1 146<173.717 731>
LayerCount: 2
Fore
SplineSet
40 244 m 6
 40 731 l 5
 186 731 l 5
 186 262 l 6
 186 182.666666667 215.7 122 312.5 122 c 4
 409.3 122 440.1 182.666666667 440.1 262 c 6
 440.1 731 l 5
 586.1 731 l 5
 586.1 244 l 6
 586.1 101.606060606 500.1 -10 312.5 -10 c 4
 125 -10 40 101.606060606 40 244 c 6
EndSplineSet
EndChar

StartChar: E
Encoding: 69 69 3
Width: 512
Flags: W
HStem: 0 120<185 497.5> 314 119<80 437.5> 611 120<185 497.5>
VStem: 80 105<314 433>
LayerCount: 2
Fore
SplineSet
80 314 m 1
 80 433 l 1
 437.5 433 l 1
 437.5 314 l 1
 80 314 l 1
185 611 m 5
 185 120 l 5
 497.5 120 l 5
 497.5 0 l 5
 40 0 l 5
 40 731 l 5
 497.5 731 l 5
 497.5 611 l 5
 185 611 l 5
EndSplineSet
EndChar

StartChar: F
Encoding: 70 70 4
Width: 513
Flags: W
HStem: 0 21G<40 186> 294 119<81 438.5> 611 120<186 498.5>
VStem: 40 146<0 294 413 611> 81 105<294 413>
LayerCount: 2
Fore
SplineSet
81 294 m 5xe8
 81 413 l 5
 438.5 413 l 5
 438.5 294 l 5
 81 294 l 5xe8
186 0 m 1xf0
 40 0 l 1
 40 731 l 1
 498.5 731 l 1
 498.5 611 l 1
 186 611 l 1
 186 0 l 1xf0
EndSplineSet
EndChar

StartChar: T
Encoding: 84 84 5
Width: 597
Flags: W
HStem: 0 21G<226.39 372.39> 613 118<35 226.39 372.39 563.78> 613 78<226.39 372.39>
VStem: 226.39 146<0 691>
LayerCount: 2
Fore
SplineSet
35 613 m 1xd0
 35 731 l 1
 563.78 731 l 1
 563.78 613 l 1
 35 613 l 1xd0
226.39 0 m 1
 226.39 691 l 5
 372.39 691 l 5xb0
 372.39 0 l 1
 226.39 0 l 1
EndSplineSet
EndChar

StartChar: H
Encoding: 72 72 6
Width: 632
Flags: W
HStem: 0 21G<40 186 446.7 592.7> 314 119<81 546.7> 711 20G<40 186 446.7 592.7>
VStem: 40 146<0 314 433 731> 81 105<314 433> 446.7 146<0 314 433 731> 446.7 100<314 433>
LayerCount: 2
Fore
SplineSet
81 314 m 5xea
 81 433 l 5
 546.7 433 l 5
 546.7 314 l 5
 81 314 l 5xea
446.7 0 m 5xe4
 446.7 731 l 5
 592.7 731 l 5
 592.7 0 l 5
 446.7 0 l 5xe4
40 0 m 5xf0
 40 731 l 5
 186 731 l 5
 186 0 l 5
 40 0 l 5xf0
EndSplineSet
EndChar

StartChar: L
Encoding: 76 76 7
Width: 513
Flags: W
HStem: 0 120<186 498.5> 711 20G<40 186>
VStem: 40 146<120 731>
LayerCount: 2
Fore
SplineSet
186 731 m 1
 186 120 l 5
 498.5 120 l 5
 498.5 0 l 5
 40 0 l 1
 40 731 l 1
 186 731 l 1
EndSplineSet
EndChar

StartChar: N
Encoding: 78 78 8
Width: 632
Flags: W
HStem: 0 21G<40 186 414.836 592.7> 711 20G<40 218.072 446.7 592.7>
VStem: 40 146<0 484> 446.7 146<257 731>
LayerCount: 2
Fore
SplineSet
40 0 m 5
 40 731 l 5
 208 731 l 5
 446.7 257 l 5
 446.7 731 l 5
 592.7 731 l 5
 592.7 0 l 5
 424.7 0 l 5
 186 484 l 5
 186 0 l 5
 40 0 l 5
EndSplineSet
EndChar

StartChar: M
Encoding: 77 77 9
Width: 784
Flags: W
HStem: 0 21G<40 178 324.069 438.007 598 744> 711 20G<40 236.274 566.155 744>
VStem: 40 138<0 454> 598 146<0 464>
LayerCount: 2
Fore
SplineSet
40 0 m 1
 40 731 l 1
 229.7 731 l 1
 388.799804688 247 l 5
 573.799804688 731 l 1
 744 731 l 1
 744 0 l 1
 598 0 l 1
 598 464 l 1
 430.799804688 0 l 5
 330.799804688 0 l 5
 178 454 l 1
 178 0 l 1
 40 0 l 1
EndSplineSet
EndChar

StartChar: C
Encoding: 67 67 10
Width: 595
Flags: W
HStem: -11 127<221.889 381.906> 612 127<220.139 379.007>
VStem: 30 145<163.007 566.911> 427.3 145<164.114 267 460 560.284>
LayerCount: 2
Fore
SplineSet
572.299804688 267 m 5
 572.299804688 78 478.299804688 -11 307.118164062 -11 c 4
 111 -11 30 101.568181818 30 243 c 6
 30 485 l 6
 30 626.431818182 111 739 303.060546875 739 c 4
 478.299804688 739 572.299804688 642 572.299804688 460 c 5
 427.299804688 460 l 5
 427.299804688 563.282226562 387.700195312 612 299.962890625 612 c 4
 200.700195312 612 175 552.295302013 175 473 c 6
 175 255 l 6
 175 175.704697987 200.700195312 116 304.009765625 116 c 4
 387.700195312 116 427.299804688 156.916015625 427.299804688 267 c 5
 572.299804688 267 l 5
EndSplineSet
EndChar

StartChar: Q
Encoding: 81 81 11
Width: 636
Flags: W
HStem: -88 122<558.906 623.2> -11 127<222.939 383.24> 172 114<286.1 351.412> 612 127<222.939 383.24>
VStem: 30 145<167.041 560.959> 433.2 145<168.114 559.886>
LayerCount: 2
Back
SplineSet
379.099609375 49 m 5xbc
 379.099609375 -55 396.200195312 -56 528.200195312 -56 c 5
 528.200195312 -178 l 5
 308.799804688 -178 245.099609375 -124 245.099609375 49 c 5
 379.099609375 49 l 5xbc
175 255 m 2
 175 175.704697987 211.3 116 307 116 c 0
 402.7 116 441.2 175.704697987 441.2 255 c 2
 441.2 473 l 2
 441.2 552.295302013 402.7 612 307 612 c 0
 211.3 612 175 552.295302013 175 473 c 2
 175 255 l 2
586.2 243 m 2
 586.2 100.606060606 492.2 -11 306.859277343 -11 c 0
 121 -11 30 101.568181818 30 243 c 2
 30 485 l 2
 30 626.431818182 121 739 306.859277343 739 c 0
 492.2 739 586.2 627.393939394 586.2 485 c 2
 586.2 243 l 2
EndSplineSet
Fore
SplineSet
286.1 286 m 1xbc
 599.2 286 451.200195312 34 623.200195312 34 c 1
 623.200195312 -88 l 1
 313.799804688 -88 472.7 172 286.1 172 c 1
 286.1 286 l 1xbc
EndSplineSet
Refer: 1 79 N 1 0 0 1 0 0 2
EndChar

StartChar: P
Encoding: 80 80 12
Width: 591
Flags: W
HStem: 0 21G<40 186> 230 122<141 384.161> 607 124<186 386.82>
VStem: 40 146<0 230 352 607> 141 45<230 352> 421.4 145<388.696 570.918>
LayerCount: 2
Fore
SplineSet
40 731 m 5xf4
 316.900390625 731 l 6
 477.367881327 731 566.4 649.292576419 566.4 500 c 6
 566.4 459 l 6
 566.4 311 477.320634921 230 312.5 230 c 6
 141 230 l 5
 141 352 l 21xec
 289.4 352 l 6
 384.275 352 421.4 382 421.4 467 c 6
 421.4 493 l 6
 421.4 578 385.32519685 607 290.5 607 c 6
 186 607 l 5
 186 0 l 5
 40 0 l 5
 40 731 l 5xf4
EndSplineSet
EndChar

StartChar: R
Encoding: 82 82 13
Width: 582
Flags: W
HStem: 0 21G<40 186 404.916 581.8> 260 122<141 379.564> 260 49<262.1 403.8> 607 124<186 384.274>
VStem: 40 146<0 260 382 607> 141 45<260 382> 410.4 145<412.906 582.27>
LayerCount: 2
Back
SplineSet
554.013671875 0 m 5
 405.461914062 0 l 5
 388.099609375 199 l 6
 381.769260489 255.91692966 358.771484375 291 291.599609375 291 c 6
 155.599609375 291 l 5xc980
 155.599609375 381 l 5
 304 381 l 6
 444.504872435 381 522.510212076 327.832578648 533.099609375 217 c 6
 554.013671875 0 l 5
40 731 m 5xcc80
 291.900390625 729 l 6
 452.176717472 728.093457944 532.400390625 662.822429907 532.400390625 535 c 6
 532.400390625 504 l 6
 532.400390625 389.355140187 452.514710127 330 289.700195312 330 c 6
 141 330 l 5
 141 422 l 21xaa80
 267 422 l 6
 354.77734375 422 383.400390625 439.6 383.400390625 502 c 6
 383.400390625 528 l 6
 383.400390625 590.242424242 355.766319086 607 268.099609375 607 c 6
 186 607 l 5
 186 0 l 5
 40 0 l 5
 40 731 l 5xcc80
EndSplineSet
Fore
SplineSet
414.799804688 0 m 5xb2
 262.099609375 309 l 5
 403.8 309 l 5
 581.8 0 l 5
 414.799804688 0 l 5xb2
40 731 m 5xda
 305.900390625 731 l 6
 472.174323849 731 555.4 657.317757009 555.4 515 c 6
 555.4 474 l 6
 555.4 333 472.552 260 303.7 260 c 6
 141 260 l 5
 141 382 l 21xd6
 285 382 l 6
 379.563934426 382 410.4 404 410.4 482 c 6
 410.4 508 l 6
 410.4 586 380.609090909 607 286.1 607 c 6
 186 607 l 5
 186 0 l 5
 40 0 l 5
 40 731 l 5xda
EndSplineSet
EndChar

StartChar: G
Encoding: 71 71 14
Width: 627
Flags: W
HStem: -10 126<221.85 383.867> 0 21G<470.84 588> 259 118<310.3 439> 259 28<439 588> 613 126<224.036 384.823>
VStem: 30 145<168.041 560.959> 431.3 145<481 565.709> 439 149<166.811 287> 473 115<0 64.8065>
LayerCount: 2
Back
SplineSet
310.3 259 m 5
 310.3 377 l 5
 588 377 l 5
 588 290 l 6
 588 101.144955702 503 -10 301 -10 c 4
 113 -10 30 102.568181818 30 244 c 6
 30 485 l 6
 30 626.431818182 115 739 308.542578125 739 c 4
 482.3 739 576.3 645 576.3 481 c 5
 431.3 481 l 5
 431.3 566.411764706 391.7 613 305.273730469 613 c 4
 204.7 613 175 552.333333333 175 473 c 6
 175 256 l 6
 175 176.666666667 204.7 116 303.991113281 116 c 4
 385.565794944 116 438.082271055 152 438.082271055 259 c 5
 310.3 259 l 5
EndSplineSet
Fore
SplineSet
310.3 259 m 1x2d
 310.3 377 l 1
 588 377 l 1x2c80
 588 259 l 1x1d
 310.3 259 l 1x2d
473 0 m 1x5c80
 442 287 l 1
 588 287 l 1x5d
 588 0 l 1
 473 0 l 1x5c80
528 287 m 1
 528 98 437.9 -10 278.35703125 -10 c 0
 118 -10 30 102.568181818 30 244 c 2
 30 485 l 2
 30 626.431818182 115 739 308.542578125 739 c 0
 482.3 739 576.3 645 576.3 481 c 1
 431.3 481 l 1
 431.3 566.411764706 391.7 613 305.273730469 613 c 0
 204.7 613 175 552.333333333 175 473 c 2
 175 256 l 2
 175 176.666666667 204.7 116 303.991113281 116 c 0x9e
 392.8 116 439 166.811428571 439 287 c 1
 528 287 l 1
EndSplineSet
EndChar

StartChar: D
Encoding: 68 68 15
Width: 604
Flags: W
HStem: 0 122<186 382.31> 607 124<186 382.309>
VStem: 40 146<122 607> 429.1 145<163.636 565.675>
LayerCount: 2
Fore
SplineSet
186 122 m 1
 291.6 122 l 2
 387.029104478 122 429.1 152 429.1 257 c 2
 429.1 472 l 2
 429.1 577 385.969012024 607 291.599609375 607 c 6
 186 607 l 1
 186 122 l 1
40 731 m 1
 302.599609375 731 l 2
 488.077571401 731 574.1 648.341365462 574.1 480 c 2
 574.1 249 l 2
 574.1 81 488.077695167 0 302.6 0 c 2
 40 0 l 1
 40 731 l 1
EndSplineSet
EndChar

StartChar: hyphen
Encoding: 45 45 16
Width: 390
Flags: W
HStem: 245 118.008<35 355>
VStem: 35 320<245 363.008>
LayerCount: 2
Fore
SplineSet
35 245 m 5
 35 363.0078125 l 5
 355 363.0078125 l 5
 355 245 l 5
 35 245 l 5
EndSplineSet
EndChar

StartChar: K
Encoding: 75 75 17
Width: 582
Flags: W
HStem: 0 21G<40 186 403.351 579.8> 711 20G<40 186 388.232 566.8>
VStem: 40 146<0 222 372 731>
LayerCount: 2
Fore
SplineSet
402.7 731 m 5
 566.8 731 l 5
 171 222 l 5
 143 372 l 5
 402.7 731 l 5
40 0 m 5
 40 731 l 5
 186 731 l 5
 186 0 l 5
 40 0 l 5
414.8 0 m 1
 203 370 l 1
 310.3 459 l 1
 579.8 0 l 1
 414.8 0 l 1
EndSplineSet
EndChar

StartChar: J
Encoding: 74 74 18
Width: 362
Flags: W
HStem: 0 118<23 156.158> 711 20G<176.8 322.8>
VStem: 176.8 146<135.7 731>
LayerCount: 2
Fore
SplineSet
23 0 m 5
 23 118 l 5
 100 118 l 6
 152.34765625 118 176.799784108 140.733398438 176.799804688 197 c 6
 176.8 731 l 5
 322.8 731 l 5
 322.8 175 l 6
 322.8 64.3081478015 275.991210938 0 122 0 c 6
 23 0 l 5
EndSplineSet
EndChar

StartChar: V
Encoding: 86 86 19
Width: 627
Flags: W
HStem: 0 21G<218.148 393.698> 711 20G<3 161.153 466.022 624.7>
LayerCount: 2
Fore
SplineSet
387.2 0 m 1
 224.2 0 l 1
 3 731 l 1
 156 731 l 1
 306.200195312 148 l 5
 471.7 731 l 1
 624.7 731 l 1
 387.2 0 l 1
EndSplineSet
EndChar

StartChar: A
Encoding: 65 65 20
Width: 617
Flags: W
HStem: 0 21G<1 156.342 461.395 616.7> 170 119<113 499.7> 711 20G<213.23 404.47>
LayerCount: 2
Fore
SplineSet
73 170 m 5
 113 289 l 5
 499.7 289 l 5
 539.7 170 l 5
 73 170 l 5
219.2 731 m 5
 398.5 731 l 5
 616.7 0 l 5
 466.7 0 l 5
 309.400390625 593 l 5
 151 0 l 5
 1 0 l 5
 219.2 731 l 5
EndSplineSet
EndChar

StartChar: Y
Encoding: 89 89 21
Width: 590
Flags: W
HStem: 0 21G<222.22 368.22> 289 54<232.22 358.22> 711 20G<3 168.578 421.862 587.44>
VStem: 222.22 146<0 343>
LayerCount: 2
Fore
SplineSet
358.22 289 m 1
 232.22 289 l 1
 3 731 l 1
 159.3 731 l 1
 295.22 438 l 5
 431.14 731 l 1
 587.44 731 l 1
 358.22 289 l 1
222.22 0 m 1
 222.22 343 l 1
 368.22 343 l 1
 368.22 0 l 1
 222.22 0 l 1
EndSplineSet
EndChar

StartChar: S
Encoding: 83 83 22
Width: 582
Flags: W
HStem: -10 119<225.817 374.524> 623 116<209.965 351.425>
VStem: 32 143.8<481.831 590.717> 402.914 149.601<138.899 249.22>
LayerCount: 2
Fore
SplineSet
261.133789062 301.159179688 m 0
 102.939453125 341.765625 32 406.130055459 32 523.419030359 c 0
 32 662 133 739 285.909224163 739 c 0
 433.514587081 739 521.514638998 668.291479821 537.514648438 520 c 1
 399.434570312 503 l 1
 389.478515625 586.158203125 345.23046875 623 278.376953125 623 c 0
 218.21875 623 175.799804688 587.853515625 175.799804688 540 c 0
 175.799804688 487.86328125 204.897460938 455.799804688 311.20703125 428.35546875 c 0
 498.32421875 380.05078125 552.514648438 313.927734375 552.514648438 198.4375 c 0
 552.514648438 64.6418979409 450.514615111 -10 291.297851562 -10 c 4
 131.000121888 -10 33.0000161799 70.2251082251 18 216 c 1
 166.948242188 232 l 1
 176.303710938 156 223.081054688 109 300.51171875 109 c 0
 361.333984375 109 402.9140625 139 402.9140625 191.77734375 c 0
 402.9140625 239.584960938 383.059570312 269.862304688 261.133789062 301.159179688 c 0
EndSplineSet
EndChar

StartChar: B
Encoding: 66 66 23
Width: 575
Flags: W
HStem: 0 124<183 374.022> 314 124<169 360.4> 607 124<183 354.236>
VStem: 169 14<314 438> 379.9 145<456.387 584> 405.2 145<149.657 285.947>
LayerCount: 2
Fore
SplineSet
169 438 m 1xf4
 286.4 438 l 2
 357.002040816 438 379.9 465 379.9 511 c 2
 379.9 526 l 2xf8
 379.9 580 356.45862069 607 266.6 607 c 2
 183 607 l 1
 183 124 l 1
 277.6 124 l 2
 368.601550388 124 405.2 144 405.2 213 c 2
 405.2 225 l 2
 405.2 294 368.601550388 314 277.6 314 c 2
 169 314 l 1
 169 438 l 1xf4
40 731 m 1
 278.7 731 l 2
 456.644 731 524.9 660 524.9 542 c 2
 524.9 517 l 2xf8
 524.9 407 437.9 382 437.9 382 c 1
 437.9 382 547.9 353 550.2 223 c 2
 550.2 195 l 2xf4
 550.2 63 470.352091255 0 289.7 0 c 2
 40 0 l 1
 40 731 l 1
EndSplineSet
EndChar

StartChar: W
Encoding: 87 87 24
Width: 903
Flags: W
HStem: 0 21G<160.568 344.026 549.523 742.833> 711 20G<3 156.694 359.428 545.13 746.706 900.4>
LayerCount: 2
Fore
SplineSet
738.400390625 0 m 1
 553.400390625 0 l 1
 448.700195312 540 l 1
 340 0 l 1
 165 0 l 1
 3 731 l 1
 153 731 l 1
 257 168 l 1
 363.200195312 731 l 1
 541.400390625 731 l 1
 646.400390625 168 l 1
 750.400390625 731 l 1
 900.400390625 731 l 1
 738.400390625 0 l 1
EndSplineSet
EndChar

StartChar: X
Encoding: 88 88 25
Width: 618
Flags: W
HStem: 0 21G<3 177.569 440.905 615.7> 309 122<248.3 374.8> 711 20G<29 200.984 433.038 601.7>
LayerCount: 2
Fore
SplineSet
374.8 431 m 1
 615.7 0 l 1
 450.7 0 l 1
 307.700195312 292 l 1
 168 0 l 1
 3 0 l 1
 239.5 431 l 1
 374.8 431 l 1
383.6 309 m 1
 248.3 309 l 1
 29 731 l 1
 192.2 731 l 1
 316.5 448 l 5
 441.9 731 l 1
 601.7 731 l 1
 383.6 309 l 1
EndSplineSet
EndChar

StartChar: Z
Encoding: 90 90 26
Width: 543
Flags: W
HStem: 0 118<175.7 518> 613 118<25 367.3>
LayerCount: 2
Fore
SplineSet
25 613 m 5
 25 731 l 5
 518 731 l 5
 518 613 l 5
 175.700195312 118 l 5
 518 118 l 1
 518 0 l 1
 25 0 l 5
 25 118 l 5
 367.299804688 613 l 5
 25 613 l 5
EndSplineSet
EndChar

StartChar: dotlessi
Encoding: 305 305 27
Width: 216
Flags: W
HStem: 0 21G<40 176> 535 20G<40 176>
VStem: 40 136<0 555>
LayerCount: 2
Fore
SplineSet
40 0 m 1
 40 555 l 5
 176 555 l 5
 176 0 l 1
 40 0 l 1
EndSplineSet
EndChar

StartChar: o
Encoding: 111 111 28
Width: 527
Flags: W
HStem: -11 115<200.817 325.257> 450 115<200.817 325.257>
VStem: 36.1846 130.95<142.066 411.934> 359.535 130.95<141.682 412.318>
LayerCount: 2
Fore
SplineSet
167.134765625 225 m 6
 167.134765625 157.659179688 189.181640625 104 262.81640625 104 c 4
 336.450195312 104 359.53515625 157.659179688 359.53515625 225 c 6
 359.534179688 329 l 6
 359.534179688 396.340820312 336.450195312 450 262.81640625 450 c 4
 189.181640625 450 167.134765625 396.340820312 167.134765625 329 c 6
 167.134765625 225 l 6
490.485351562 223 m 6
 490.485351562 91.615234375 421.506835938 -11 263.190429688 -11 c 4
 104.205078125 -11 36.1845703125 92.57421875 36.1845703125 223 c 6
 36.1845703125 331 l 6
 36.1845703125 461.42578125 104.205078125 565 263.190429688 565 c 4
 421.505859375 565 490.484375 462.384765625 490.484375 331 c 6
 490.485351562 223 l 6
EndSplineSet
EndChar

StartChar: c
Encoding: 99 99 29
Width: 514
Flags: W
HStem: -11 115<200.817 324.597> 450 115<200.817 324.597>
VStem: 36.1846 130.95<142.066 411.934> 354.24 129.01<132.612 208.218 345.782 421.388>
LayerCount: 2
Fore
SplineSet
263.190429688 -11 m 4
 104.205078125 -11 36.1845703125 92.57421875 36.1845703125 223 c 6
 36.1845703125 331 l 6
 36.1845703125 461.42578125 104.205078125 565 263.190429688 565 c 4
 417.720703125 565 483.25 470.071289062 483.25 345.782226562 c 1
 354.240234375 345.782226562 l 1
 354.240234375 403.797851562 333.114257812 450 262.81640625 450 c 4
 189.181640625 450 167.134765625 396.340820312 167.134765625 329 c 6
 167.134765625 225 l 6
 167.134765625 157.659179688 189.181640625 104 262.81640625 104 c 4
 333.114257812 104 354.240234375 150.202148438 354.240234375 208.217773438 c 1
 483.25 208.217773438 l 1
 483.25 83.9287109375 417.720703125 -11 263.190429688 -11 c 4
EndSplineSet
EndChar

StartChar: d
Encoding: 100 100 30
Width: 540
Flags: W
HStem: -10 118<191.631 305.478> 0 21G<365.165 501.165> 451 114<193.281 310.041> 751 20G<365.165 501.165>
VStem: 29.1594 135<136.468 422.468> 365.165 136<0 80 176.791 387.942 485 771> 365.165 10<387.942 485>
LayerCount: 2
Fore
SplineSet
365.164623468 0 m 1x7c
 365.164623468 771 l 1
 501.164623468 771 l 1
 501.164623468 0 l 1
 365.164623468 0 l 1x7c
383.164623468 80 m 1
 383.164623468 80 335.146319417 -10 207.72276536 -10 c 0
 89.2170087977 -10 29.1593695271 75.6175972927 29.1593695271 178.747884941 c 2
 29.1593695271 375.279187817 l 2
 29.1593695271 479.382402707 89.1943695008 565 211.379197678 565 c 0
 335.025885781 565 375.164623468 485 375.164623468 485 c 1
 375.164623468 387.941504178 l 1
 375.164623468 387.941504178 338.688947266 451 254.887312403 451 c 0
 177.008172796 451 164.159369527 396.540389972 164.159369527 326.793871866 c 2
 164.159369527 228.384401114 l 6
 164.159369527 158.637883008 177.021811504 108 261.660824837 108 c 4xba
 360.311609678 108 383.164623468 176.791086351 383.164623468 176.791086351 c 1
 383.164623468 80 l 1
EndSplineSet
EndChar

StartChar: p
Encoding: 112 112 31
Width: 534
Flags: W
HStem: -11 115<224.704 339.513> 446 119<229.761 338.633> 535 20G<38.8792 168.011>
VStem: 38.8792 129.131<-180 70 167.05 377.218 474 555> 150.657 17.3538<377.218 474> 367.947 135<135.789 414.244>
LayerCount: 2
Fore
SplineSet
168.010507881 555 m 5xb4
 168.010507881 -180 l 5
 38.8791593695 -180 l 5
 38.8791593695 555 l 5
 168.010507881 555 l 5xb4
150.656742557 474 m 1xcc
 150.656742557 474 198.499821769 565 326.451519151 565 c 0
 443.958317189 565 502.946584939 480.351351351 502.946584939 376.243243243 c 2
 502.946584939 178.72972973 l 2
 502.946584939 73.6486486486 443.942135227 -11 322.71634332 -11 c 0
 198.412600992 -11 158.432574431 70 158.432574431 70 c 1
 158.432574431 167.05027933 l 1
 158.432574431 167.05027933 193.670753065 104 277.150962268 104 c 0
 354.047285464 104 367.946584939 157.497206704 367.946584939 227.234636872 c 2
 367.946584939 326.586592179 l 2
 367.946584939 396.324022346 354.047285464 446 271.035773585 446 c 0
 173.356392294 446 150.656742557 377.217877095 150.656742557 377.217877095 c 1
 150.656742557 474 l 1xcc
EndSplineSet
EndChar

StartChar: t
Encoding: 116 116 32
Width: 343
Flags: W
HStem: 0 113<222.587 322.723> 447 108<11.6641 328.555>
VStem: 73.8704 136<124.857 699>
LayerCount: 2
Fore
SplineSet
11.6640625 555 m 1
 328.555058998 555 l 1
 328.555058998 447 l 1
 11.6640625 447 l 1
 11.6640625 555 l 1
322.723332175 0 m 1
 257.465820312 0 l 6
 126.115234375 0 73.8704028021 59 73.8704028021 155 c 2
 73.8701171875 699 l 1
 209.870117188 699 l 1
 209.870402802 182 l 2
 209.870402802 140 225.323242188 113 275.872070312 113 c 6
 322.723332175 113 l 1
 322.723332175 0 l 1
EndSplineSet
EndChar

StartChar: l
Encoding: 108 108 33
Width: 216
Flags: W
HStem: 0 21G<40 176> 751 20G<40 176>
VStem: 40 136<0 771>
LayerCount: 2
Fore
SplineSet
40 0 m 1
 40 771 l 5
 176 771 l 5
 176 0 l 1
 40 0 l 1
EndSplineSet
EndChar

StartChar: e
Encoding: 101 101 34
Width: 514
Flags: W
HStem: -11 115<200.817 336.264> 241.579 99<128.159 355.057> 454 111<199.585 326.783>
VStem: 128.159 38.9756<241.579 340.579> 355.057 133<122.127 186.218 340.579 425.566>
LayerCount: 2
Fore
SplineSet
488.056640625 301 m 6
 488.056640625 241.579101562 l 5
 128.159179688 241.579101562 l 5
 128.159179688 340.579101562 l 5
 355.056640625 340.579101562 l 5
 355.056640625 414.594726562 332.114257812 454 261.81640625 454 c 4
 188.181640625 454 167.134765625 402.340820312 167.134765625 335 c 6
 167.134765625 225 l 6
 167.134765625 157.659179688 189.181640625 104 262.81640625 104 c 4
 333.114257812 104 354.240234375 128.202148438 354.240234375 186.217773438 c 5
 483.25 186.217773438 l 5
 483.25 61.9287109375 417.720703125 -11 263.190429688 -11 c 4
 104.205078125 -11 36.1845703125 92.57421875 36.1845703125 223 c 6
 36.1845703125 331 l 6
 36.1845703125 461.42578125 104.205078125 565 263.190429688 565 c 4
 426.720703125 565 488.056640625 470 488.056640625 301 c 6
EndSplineSet
EndChar

StartChar: s
Encoding: 115 115 35
Width: 487
Flags: W
HStem: -10 98<184.967 311.482> 461 104<177.562 294.94>
VStem: 33.6084 129.999<357.658 446.161> 326.219 134.101<103.468 187.696>
LayerCount: 2
Fore
SplineSet
218.682617188 219.799804688 m 4
 94.404296875 243.75 33.6083984375 304.45935479 33.6083984375 393.298828125 c 4
 33.6083984375 502.1484375 121.649414062 565 241.129882812 565 c 4
 357.71484375 565 433.884765625 506.392433799 446.745117188 393.021484375 c 5
 323.247070312 381.532226562 l 5
 314.153320312 439.443359375 280.810546875 461 236.123046875 461 c 4
 187.856445312 461 163.607421875 435.92578125 163.607421875 401.952148438 c 4
 163.607421875 366.358398438 185.107421875 344.694335938 264.954101562 327.31640625 c 4
 398.240234375 298.30859375 460.319335938 240.840256785 460.319335938 155.411132812 c 4
 460.319335938 49.6394471993 372.19921875 -10 248.946289062 -10 c 4
 116.921875 -10 32.857421875 56.8695678289 20 168.638671875 c 5
 147.869140625 178.872070312 l 5
 156.989257812 120.467773438 193.469726562 88 251.478515625 88 c 4
 297.844726562 88 326.21875 108.239257812 326.21875 145.739257812 c 4
 326.21875 177.07421875 307.592407907 202.665626759 218.682617188 219.799804688 c 4
EndSplineSet
EndChar

StartChar: i
Encoding: 105 105 36
Width: 216
Flags: W
HStem: 0 21G<40 176> 535 20G<40 176> 645 126<40 176>
VStem: 40 136<0 555 645 771>
LayerCount: 2
Fore
SplineSet
40 645 m 1
 40 771 l 1
 176 771 l 1
 176 645 l 1
 40 645 l 1
40 0 m 5
 40 555 l 5
 176 555 l 5
 176 0 l 5
 40 0 l 5
EndSplineSet
EndChar

StartChar: u
Encoding: 117 117 37
Width: 531
Flags: W
HStem: -10 115<131.544 283.348> 0 21G<355.639 491.639> 535 20G<38.8792 173.879 355.639 491.639>
VStem: 38.8792 135<121.981 555> 355.639 136<0 100 196.738 555>
LayerCount: 2
Fore
SplineSet
38.8791593695 145.593803787 m 2xb8
 38.8791593695 555 l 1
 173.87915937 555 l 1
 173.87915937 190.944206009 l 2
 173.87915937 129.141630901 197.499870632 105 245.916473226 105 c 0
 340.297806898 105 384.639229422 196.738197425 384.639229422 196.738197425 c 1
 384.639229422 100 l 1
 384.639229422 100 324.649157377 -10 183.793650485 -10 c 0
 79.2944094298 -10 38.8791593695 60.017211704 38.8791593695 145.593803787 c 2xb8
355.639229422 0 m 1x78
 355.639229422 555 l 1
 491.639229422 555 l 1
 491.639229422 0 l 1
 355.639229422 0 l 1x78
EndSplineSet
EndChar

StartChar: n
Encoding: 110 110 38
Width: 531
Flags: W
HStem: 0 21G<38.8792 174.879 356.639 491.639> 447 118<247.175 396.746> 535 20G<38.8792 174.879>
VStem: 38.8792 136<0 358.179 455 555> 156.879 18<358.179 455> 356.639 135<0 424.184>
LayerCount: 2
Fore
SplineSet
174.87915937 555 m 5xb4
 174.87915937 0 l 5
 38.8791593695 0 l 5
 38.8791593695 555 l 5
 174.87915937 555 l 5xb4
356.639229422 0 m 5
 356.639229422 354.3174946 l 6
 356.639229422 419.002159827 327.691772553 447 276.034602467 447 c 4
 184.026616239 447 156.87915937 358.179265659 156.87915937 358.179265659 c 5
 156.87915937 455 l 5
 156.87915937 455 200.597806249 565 346.188237042 565 c 4xcc
 447.302885059 565 491.639229422 503.734939759 491.639229422 394.819277108 c 6
 491.639229422 0 l 5
 356.639229422 0 l 5
EndSplineSet
EndChar

StartChar: b
Encoding: 98 98 39
Width: 541
Flags: W
HStem: -10 118<234.566 348.412> 0 21G<38.8792 174.879> 451 114<230.002 346.762> 751 20G<38.8792 174.879>
VStem: 38.8792 136<0 80 176.791 387.942 485 771> 164.879 10<387.942 485> 375.884 135<136.468 422.468>
LayerCount: 2
Fore
SplineSet
174.87915937 0 m 1x7a
 38.8791593695 0 l 1
 38.8791593695 771 l 1
 174.87915937 771 l 1
 174.87915937 0 l 1x7a
156.87915937 80 m 1
 156.87915937 176.791086351 l 1
 156.87915937 176.791086351 179.732173159 108 278.382786045 108 c 4
 363.021971333 108 375.88441331 158.637883008 375.88441331 228.384401114 c 6
 375.88441331 326.793871866 l 2
 375.88441331 396.540389972 363.035610041 451 285.156767263 451 c 0
 201.354835571 451 164.87915937 387.941504178 164.87915937 387.941504178 c 1
 164.87915937 485 l 1
 164.87915937 485 205.017897056 565 328.664383896 565 c 0
 450.849413336 565 510.88441331 479.382402707 510.88441331 375.279187817 c 2
 510.88441331 178.747884941 l 2
 510.88441331 75.6175972927 450.826774039 -10 332.321123131 -10 c 0xb6
 204.89746342 -10 156.87915937 80 156.87915937 80 c 1
EndSplineSet
EndChar

StartChar: m
Encoding: 109 109 40
Width: 822
Flags: W
HStem: 0 21G<38.8792 174.879 344.878 479.878 649.877 784.877> 447 118<236.721 384.936 541.72 689.935> 535 20G<38.8792 174.879>
VStem: 38.8792 136<0 555> 156.879 18<358.179 455> 344.878 135<0 424.184> 461.878 18<394.819 455> 649.877 135<0 424.184>
LayerCount: 2
Fore
SplineSet
649.877408056 0 m 1xc3
 649.877408056 354.3174946 l 2
 649.877408056 419.002159827 620.924999258 447 569.258992381 447 c 0
 477.475540978 447 461.878283713 358.179265659 461.878283713 358.179265659 c 1
 461.878283713 455 l 1
 461.878283713 455 493.691337734 565 639.350919188 565 c 0
 740.520005389 565 784.877408056 503.734939759 784.877408056 394.819277108 c 2
 784.877408056 0 l 1
 649.877408056 0 l 1xc3
174.87915937 555 m 1xb1
 174.87915937 0 l 1
 38.8791593695 0 l 1
 38.8791593695 555 l 1
 174.87915937 555 l 1xb1
344.878283713 0 m 1xcd
 344.878283713 354.3174946 l 2
 344.878283713 419.002159827 315.925874915 447 264.259868038 447 c 0
 172.476416635 447 156.87915937 358.179265659 156.87915937 358.179265659 c 1
 156.87915937 455 l 1
 156.87915937 455 188.692213391 565 334.351794844 565 c 0
 435.520881045 565 479.878283713 503.734939759 479.878283713 394.819277108 c 2
 479.878283713 0 l 1
 344.878283713 0 l 1xcd
EndSplineSet
EndChar

StartChar: h
Encoding: 104 104 41
Width: 531
Flags: W
HStem: 0 21G<38.8792 174.879 356.639 491.639> 447 118<247.175 396.746> 751 20G<38.8792 174.879>
VStem: 38.8792 136<0 358.179 455 771> 156.879 18<358.179 455> 356.639 135<0 424.184>
LayerCount: 2
Fore
SplineSet
356.639229422 0 m 5xec
 356.639229422 354.3174946 l 6
 356.639229422 419.002159827 327.691772553 447 276.034602467 447 c 4
 184.026616239 447 156.87915937 358.179265659 156.87915937 358.179265659 c 5
 156.87915937 455 l 5
 156.87915937 455 200.597806249 565 346.188237042 565 c 4
 447.302885059 565 491.639229422 503.734939759 491.639229422 394.819277108 c 6
 491.639229422 0 l 5
 356.639229422 0 l 5xec
174.87915937 771 m 1xf4
 174.87915937 0 l 1
 38.8791593695 0 l 1
 38.8791593695 771 l 1
 174.87915937 771 l 1xf4
EndSplineSet
EndChar

StartChar: f
Encoding: 102 102 42
Width: 326
Flags: W
HStem: 0 21G<73.8704 209.87> 447 108<11.6637 308.04> 658 113<221.794 321.648>
VStem: 73.8704 136<0 646.143>
LayerCount: 2
Fore
SplineSet
11.6637478109 447 m 5
 11.6637478109 555 l 5
 308.04028021 555 l 5
 308.04028021 447 l 5
 11.6637478109 447 l 5
321.647985989 771 m 5
 321.647985989 658 l 5
 274.796875 658 l 6
 223.282226562 658 209.870402802 631 209.870402802 589 c 6
 209.870402802 0 l 5
 73.8704028021 0 l 5
 73.8704028021 616 l 6
 73.8704028021 712 126.100585938 771 256.405273438 771 c 6
 321.647985989 771 l 5
EndSplineSet
EndChar

StartChar: q
Encoding: 113 113 43
Width: 533
Flags: W
HStem: -11 115<192.835 306.419> 446 119<193.724 303.011> 535 20G<364.095 493.227>
VStem: 29.1594 135<135.789 414.244> 364.095 129.131<-180 70 164.184 380.084 474 555> 364.095 17.3538<380.084 474>
LayerCount: 2
Fore
SplineSet
364.095446585 555 m 5xb8
 493.226795096 555 l 5
 493.226795096 -180 l 5
 364.095446585 -180 l 5
 364.095446585 555 l 5xb8
381.449211909 474 m 5xd4
 381.449211909 380.083798883 l 5
 381.449211909 380.083798883 358.749562172 446 263.287937144 446 c 4
 178.058669002 446 164.159369527 393.458100559 164.159369527 323.720670391 c 6
 164.159369527 230.100558659 l 6
 164.159369527 160.363128492 178.058669002 104 256.932390577 104 c 4
 338.435201401 104 373.673380035 164.184357542 373.673380035 164.184357542 c 5
 373.673380035 70 l 5
 373.673380035 70 333.693353474 -11 209.389493651 -11 c 4
 88.1638192391 -11 29.1593695271 73.6486486486 29.1593695271 178.72972973 c 6
 29.1593695271 376.243243243 l 6
 29.1593695271 480.351351351 88.1476372766 565 205.654780971 565 c 4
 333.606132697 565 381.449211909 474 381.449211909 474 c 5xd4
EndSplineSet
EndChar

StartChar: j
Encoding: 106 106 44
Width: 212
Flags: W
HStem: -179 113<-74.8424 25.2771> 535 20G<38.8789 174.879> 645 126<38.8792 174.879>
VStem: 38.8792 136<-54.1433 555 645 771>
LayerCount: 2
Fore
SplineSet
-74.8423817863 -179 m 5
 -74.8423817863 -66 l 5
 -27.9912109375 -66 l 6
 23.5234375 -66 38.8791593695 -39 38.8791593695 3 c 6
 38.87890625 555 l 5
 174.87890625 555 l 5
 174.87915937 -24 l 6
 174.87915937 -120 121.669921875 -179 -9.6064453125 -179 c 6
 -74.8423817863 -179 l 5
38.8791593695 645 m 1
 38.8791593695 771 l 1
 174.87915937 771 l 1
 174.87915937 645 l 1
 38.8791593695 645 l 1
EndSplineSet
EndChar

StartChar: uni0237
Encoding: 567 567 45
Width: 212
Flags: W
HStem: -179 113<-74.8424 25.2771> 535 20G<38.8789 174.879>
VStem: 38.8792 136<-54.1433 555>
LayerCount: 2
Fore
SplineSet
-74.8423817863 -179 m 1
 -74.8423817863 -66 l 1
 -27.9912109375 -66 l 6
 23.5234375 -66 38.8791593695 -39 38.8791593695 3 c 2
 38.87890625 555 l 1
 174.87890625 555 l 1
 174.87915937 -24 l 2
 174.87915937 -120 121.669921875 -179 -9.6064453125 -179 c 6
 -74.8423817863 -179 l 1
EndSplineSet
EndChar

StartChar: k
Encoding: 107 107 46
Width: 529
Flags: W
HStem: 0 21G<38.8792 174.879 352.51 525.569> 535 20G<330.801 505.158> 751 20G<38.8792 174.879>
VStem: 38.8792 136<0 172 302 771>
LayerCount: 2
Fore
SplineSet
347.017064532 555 m 5
 505.157671232 555 l 5
 169.87915937 172 l 5
 141.87915937 302 l 5
 347.017064532 555 l 5
365.192644483 0 m 5
 181.294220665 290 l 5
 258.274956217 399 l 5
 525.569176883 0 l 5
 365.192644483 0 l 5
174.87915937 771 m 5
 174.87915937 0 l 5
 38.8791593695 0 l 5
 38.8791593695 771 l 5
 174.87915937 771 l 5
EndSplineSet
EndChar

StartChar: r
Encoding: 114 114 47
Width: 348
Flags: W
HStem: 0 21G<38.96 174.96> 444 121<222.427 346.98> 535 20G<38.96 174.96>
VStem: 38.96 136<0 358.096 455 555> 156.96 18<358.096 455>
LayerCount: 2
Fore
SplineSet
174.959960938 555 m 1xb0
 174.959960938 0 l 1
 38.9599609375 0 l 1
 38.9599609375 555 l 1
 174.959960938 555 l 1xb0
347 551 m 1
 347 430.487304688 l 1
 347 430.487304688 315.814453125 444 273.469726562 444 c 0
 182.006835938 444 156.959960938 358.095703125 156.959960938 358.095703125 c 1
 156.959960938 455 l 1
 156.959960938 455 195.953125 565 287.170898438 565 c 0xc8
 324.584960938 565 347 551 347 551 c 1
EndSplineSet
EndChar

StartChar: v
Encoding: 118 118 49
Width: 513
Flags: W
HStem: 0 21G<172.781 343.827> 535 20G<2.9541 144.173 370.251 511.405>
LayerCount: 2
Fore
SplineSet
337.561914063 0 m 5
 179.129296875 0 l 5
 2.9541015625 555 l 5
 138.501269531 555 l 5
 257.859765625 134.1328125 l 5
 375.858496094 555 l 1
 511.404589844 555 l 1
 337.561914063 0 l 5
EndSplineSet
EndChar

StartChar: w
Encoding: 119 119 50
Width: 816
Flags: W
HStem: 0 21G<135.912 306.563 495.397 681.128> 535 20G<2.86523 143.007 335.32 483.117 673.988 814.176>
LayerCount: 2
Fore
SplineSet
300.982421875 0 m 1
 140.885742188 0 l 1
 2.865234375 555 l 1
 138.942382812 555 l 1
 224.4765625 134.1328125 l 1
 340.849902344 555 l 1
 477.705371094 555 l 1
 591.59296875 134.1328125 l 1
 678.098828125 555 l 1
 814.175976562 555 l 1
 676.154492187 0 l 1
 500.918164063 0 l 1
 401.485351562 360.192382812 l 5
 300.982421875 0 l 1
EndSplineSet
EndChar

StartChar: z
Encoding: 122 122 51
Width: 459
Flags: W
HStem: 0 108<170.169 434.017> 447 108<25 288.848>
LayerCount: 2
Fore
SplineSet
25 447 m 1
 25 555 l 1
 434.016601562 555 l 5
 434.016601562 447 l 5
 170.168945312 108 l 1
 434.016601562 108 l 1
 434.016601562 0 l 1
 25 0 l 1
 25 108 l 1
 288.84765625 447 l 1
 25 447 l 1
EndSplineSet
EndChar

StartChar: x
Encoding: 120 120 52
Width: 534
Flags: W
HStem: 0 21G<2.91594 164.555 370.011 531.964> 220.84 122<214.516 324.641> 535 20G<28.1874 185.005 363.555 518.356>
LayerCount: 2
Fore
SplineSet
324.640980736 342.839643653 m 1
 531.964098074 0 l 1
 381.307355517 0 l 1
 265.836252189 204.445434298 l 5
 153.57267951 0 l 1
 2.91593695271 0 l 1
 205.96234676 342.839643653 l 1
 324.640980736 342.839643653 l 1
332.125218914 220.839643653 m 1
 214.515761821 220.839643653 l 1
 28.1873905429 555 l 1
 174.956217163 555 l 1
 273.320490368 359.233853007 l 1
 373.823117338 555 l 1
 518.356392294 555 l 1
 332.125218914 220.839643653 l 1
EndSplineSet
EndChar

StartChar: g
Encoding: 103 103 53
Width: 530
Flags: W
HStem: -190 97<137.648 388.742> -10.793 114.901<189.1 393.626> 146.137 113<197.187 318.174> 452 113<197.187 318.174> 538 133<444.175 526.833>
VStem: 0 123<-75.7521 -6.83> 20 119<78.5 172.192> 39 135<281.697 429.44> 341.861 135<281.697 429.44> 401.86 124<-78.3665 -23.7163>
LayerCount: 2
Fore
SplineSet
476.860770578 348.781444244 m 6xf180
 476.860770578 231.461061974 407.581967213 146.137147595 257.386051834 146.137147595 c 4
 107.289106174 146.137147595 39 231.461061974 39 348.781444244 c 6
 39 362.35570335 l 6
 39 479.676085621 107.289106174 565 257.386051834 565 c 4
 407.581967213 565 476.860770578 479.676085621 476.860770578 362.35570335 c 6
 476.860770578 348.781444244 l 6xf180
174 347.142526848 m 6
 174 293.777562833 196.452714536 259.137147595 257.930385289 259.137147595 c 4
 319.408056042 259.137147595 341.860770578 293.777562833 341.860770578 347.142526848 c 6
 341.860770578 363.994620747 l 6
 341.860770578 417.359584762 319.408056042 452 257.930385289 452 c 4
 196.452714536 452 174 417.359584762 174 363.994620747 c 6
 174 347.142526848 l 6
526.832749562 671 m 1xe8
 526.832749562 538 l 1
 444.849045472 532 404.856994696 517 385.860770578 454 c 1
 321.546409807 522 l 1
 349.973215464 609.284023669 434.824899453 660.420118343 526.832749562 671 c 1xe8
262.677806895 -10.79296875 m 0
 42.7272671485 -8.46885182861 20 52 20 105 c 0
 20 186.520507812 100 218.13671875 100 218.13671875 c 1
 172.553710938 180.13671875 l 1
 172.553710938 180.13671875 139 166.645185623 139 138.16957922 c 0xe240
 139 111.713626165 153.392478033 107.815288574 309.433321887 104.108398438 c 0
 482.375582219 100 525.860351562 47 525.860351562 -35.9921875 c 0
 525.860351562 -160 416.613087118 -190 263.678710938 -190 c 0
 120.382056256 -190 0 -170.425759064 0 -65.6591796875 c 0
 0 9.2322447493 74 45 74 45 c 1
 183.622591944 14 l 1
 183.622591944 14 123 -6.45168276519 123 -43.6376953125 c 0
 123 -76 155.458195282 -93 263.8203125 -93 c 0
 347.763187175 -93 401.860351562 -84.2122647094 401.860351562 -49.505859375 c 0xe440
 401.860351562 -20.9504778454 367.403655553 -11.8995589737 262.677806895 -10.79296875 c 0
EndSplineSet
EndChar

StartChar: y
Encoding: 121 121 54
Width: 514
Flags: W
HStem: -179 118<48.5989 176.069> 535 20G<2.91594 145.374 369.546 511.366>
LayerCount: 2
Fore
SplineSet
279.593695271 146.607594937 m 1
 207.958844133 -1.54430379747 l 1
 2.91593695271 555 l 1
 138.46234676 555 l 1
 279.593695271 146.607594937 l 1
205.820490368 13.0759493671 m 2
 375.819614711 555 l 1
 511.366024518 555 l 1
 315.945709282 -3.81866666667 l 2
 275.316987741 -122.237333333 250.72591944 -179 123.493870403 -179 c 2
 48.5989492119 -179 l 1
 48.5989492119 -61 l 1
 107.88966725 -61 l 2
 161.984238179 -61 185.506129597 -52.2278481013 205.820490368 13.0759493671 c 2
EndSplineSet
EndChar

StartChar: three
Encoding: 51 51 55
Width: 538
Flags: W
HStem: -10 127<197.609 330.848> 314 118<185.4 309.6> 345 37<185.4 415.1> 612 127<206.257 333.831>
VStem: 34 137.9<508 578.763> 361.8 141.3<465.78 583.676> 368.1 145<155.801 279.54>
LayerCount: 2
Fore
SplineSet
185.400390625 382 m 17xba
 266.400390625 382 l 2xba
 415.099609375 382 513.1 334 513.1 194.581054688 c 0
 513.1 56 397.024414062 -10 261.900390625 -10 c 0
 132.924804688 -10 24 59 24 219 c 1
 162.900390625 219 l 1
 162.900390625 148 211.432617188 117 265.823242188 117 c 0
 325.732421875 117 368.1 159 368.1 217 c 0
 368.1 297 309.599609375 314 233.099609375 314 c 2
 185.400390625 314 l 1xda
 185.400390625 382 l 17xba
185.400390625 345 m 13
 185.400390625 432 l 5
 233.099609375 432 l 6
 309.599609375 432 361.8 455 361.8 525 c 4
 361.8 579 324 612 270.391113281 612 c 4
 216 612 171.900390625 580.93359375 171.900390625 508 c 5
 34 508 l 5
 34 659 138 739 266.467675781 739 c 4
 402.1 739 503.1 666 503.1 537.418945312 c 4xdc
 503.1 408 416.099609375 345 266.400390625 345 c 6
 185.400390625 345 l 13
EndSplineSet
Substitution2: "'sinf' Scientific Inferiors lookup 0 subtable" three.inferior
Substitution2: "'sups' Superscript lookup 0 subtable" three.superior
EndChar

StartChar: one
Encoding: 49 49 57
Width: 326
Flags: W
HStem: 0 21G<140 286> 558 80<20 85.9043> 711 20G<152.394 286>
VStem: 140 146<0 558>
LayerCount: 2
Fore
SplineSet
140 0 m 5
 140 558 l 5
 20 558 l 5
 20 638 l 5
 94.5467080728 653.693038951 134.787549971 681.54901482 170 731 c 5
 286 731 l 5
 286 0 l 5
 140 0 l 5
EndSplineSet
Substitution2: "'sinf' Scientific Inferiors lookup 0 subtable" one.inferior
Substitution2: "'sups' Superscript lookup 0 subtable" one.superior
EndChar

StartChar: four
Encoding: 52 52 58
Width: 614
Flags: W
HStem: 0 21G<336 482> 168.992 118.008<163 579> 711 20G<312.216 482>
VStem: 336 146<0 556.546>
LayerCount: 2
Back
SplineSet
482 0 m 5
 336 0 l 5
 336 395 l 5
 369 454 384.48046875 498.385742188 395 539 c 5
 482 539 l 5
 482 0 l 5
579 287 m 5
 579 168.9921875 l 5
 20 168.9921875 l 5
 20 287 l 5
 20 287 230 510 230 731 c 5
 362.997070312 731 l 5
 362.997070312 486 160 287 160 287 c 5
 579 287 l 5
EndSplineSet
Fore
SplineSet
326 731 m 5
 482 731 l 5
 482 0 l 5
 336 0 l 5
 336 556.545898438 l 5
 163 287 l 5
 579 287 l 5
 579 168.9921875 l 5
 20 168.9921875 l 5
 20 287 l 5
 326 731 l 5
EndSplineSet
Substitution2: "'sinf' Scientific Inferiors lookup 0 subtable" four.inferior
Substitution2: "'sups' Superscript lookup 0 subtable" four.superior
EndChar

StartChar: zero
Encoding: 48 48 59
Width: 552
Flags: W
HStem: -11 127<207.289 342.823> 611 128<207.289 342.823>
VStem: 30 145<149.39 572.795> 377 145<154.82 573.18>
LayerCount: 2
Fore
SplineSet
175 255 m 2
 175 175.704697987 188 116 275 116 c 0
 362 116 377 175.705078125 377 255 c 2
 377 472 l 2
 377 551.294921875 362 611 275 611 c 0
 188 611 175 551.295302013 175 472 c 2
 175 255 l 2
522 243 m 2
 522 100.606445312 448 -11 274.872070312 -11 c 0
 101 -11 30 101.568181818 30 243 c 2
 30 485 l 2
 30 626.431818182 101 739 274.872070312 739 c 0
 448 739 522 627.393554688 522 485 c 2
 522 243 l 2
EndSplineSet
Substitution2: "'sinf' Scientific Inferiors lookup 0 subtable" zero.inferior
Substitution2: "'sups' Superscript lookup 0 subtable" zero.superior
EndChar

StartChar: period
Encoding: 46 46 60
Width: 236
Flags: W
HStem: 0 146<40 196>
VStem: 40 156<0 146>
LayerCount: 2
Fore
SplineSet
40 0 m 5
 40 146 l 5
 196 146 l 5
 196 0 l 5
 40 0 l 5
EndSplineSet
EndChar

StartChar: a
Encoding: 97 97 61
Width: 505
Flags: W
HStem: -10 106<171.198 283.528> 0 21G<357.462 492.014> 244.093 92.7598<200.993 345.462> 456 109<191.056 310.644>
VStem: 19.5858 140<109.195 211.776> 335.462 18<68 176.765> 353.462 117<68 176.765>
LayerCount: 2
Fore
SplineSet
357.461914062 0 m 5x7a
 357.461914062 0 335.461914062 30.9152199074 335.461914062 104.338867188 c 6
 335.461914062 351.661132812 l 6x7c
 335.461914062 417.355975116 318.423559076 456 248.934570312 456 c 4
 171.903238366 456 166.696200129 385.234972678 166.696200129 385.234972678 c 5
 35.5859375 406.098632812 l 5
 35.5859375 406.098632812 51.5945750152 565 250.374023438 565 c 4
 398.320505434 565 470.461914062 499.017035532 470.461914062 363.700195312 c 6
 470.461914062 117.66796875 l 6
 470.461914062 47.650665031 492.013671875 0 492.013671875 0 c 5
 357.461914062 0 l 5x7a
353.461914062 68 m 5
 353.461914062 68 300.809087787 -10 186.487489735 -10 c 4
 79.6902963621 -10 19.5857562117 57.8966903805 19.5857562117 145.964419009 c 4
 19.5857562117 307 190 336 345.461914062 336.852539062 c 5
 345.461914062 244.092773438 l 5
 195 244.092773438 159.5859375 216 159.5859375 153.536132812 c 4
 159.5859375 121.6875 177.435546875 96 233.131835938 96 c 4xbc
 323.71484375 96 353.461914062 176.764648438 353.461914062 176.764648438 c 5
 353.461914062 68 l 5
EndSplineSet
EndChar

StartChar: comma
Encoding: 44 44 62
Width: 236
Flags: W
HStem: 0 146<40 122>
VStem: 40 156<0 146>
LayerCount: 2
Fore
SplineSet
40 0 m 5
 40 146 l 5
 196 146 l 5
 196 0 l 5
 117 -130 l 5
 50 -130 l 5
 122 0 l 5
 40 0 l 5
EndSplineSet
EndChar

StartChar: exclam
Encoding: 33 33 64
Width: 226
Flags: W
HStem: 0 146<35 191> 711 20G<40 186>
VStem: 35 156<0 146 587.92 731> 60 106<220 398.85>
LayerCount: 2
Fore
SplineSet
60 220 m 1xd0
 40 731 l 1
 186 731 l 1
 166 220 l 1
 60 220 l 1xd0
35 0 m 5xe0
 35 146 l 1
 191 146 l 1
 191 0 l 5
 35 0 l 5xe0
EndSplineSet
EndChar

StartChar: two
Encoding: 50 50 65
Width: 538
Flags: W
HStem: 0 120<185.1 503> 612 127<196.856 322.256>
VStem: 24.5996 137.9<508 578.763> 352.4 138.6<430.761 579.803>
LayerCount: 2
Back
SplineSet
257.067382812 739 m 4
 390 739 491 662 491 523.418945312 c 4
 491 301 216.099609375 240 186.099609375 120 c 5
 503 120 l 5
 503 0 l 5
 10 0 l 5
 20 349 352.4 351 352.4 517 c 4
 352.4 575 314.6 612 260.991210938 612 c 4
 206.599609375 612 162.5 580.93359375 162.5 508 c 5
 24.599609375 508 l 5
 24.599609375 659 128.599609375 739 257.067382812 739 c 4
EndSplineSet
Fore
SplineSet
257.067382812 739 m 0
 390 739 491 662 491 523.418945312 c 0
 491 404 441.262256396 330.056360634 329 238 c 2
 185.099609375 120 l 1
 503 120 l 1
 503 0 l 1
 20 0 l 25
 20 130 l 1
 241.7 326 l 2
 319.113395795 394.439447794 352.4 447 352.4 517 c 0
 352.4 575 314.6 612 260.991210938 612 c 0
 206.599609375 612 162.5 580.93359375 162.5 508 c 1
 24.599609375 508 l 1
 24.599609375 659 128.599609375 739 257.067382812 739 c 0
EndSplineSet
Substitution2: "'sinf' Scientific Inferiors lookup 0 subtable" two.inferior
Substitution2: "'sups' Superscript lookup 0 subtable" two.superior
EndChar

StartChar: question
Encoding: 63 63 66
Width: 456
Flags: W
HStem: 0 146<131 287> 615 124<142.956 265.492>
VStem: 131 156<0 146> 146 119<219.438 336.91> 279 147<497.656 598.935>
LayerCount: 2
Fore
SplineSet
131 0 m 1xe0
 131 146 l 1
 287 146 l 1
 287 0 l 1
 131 0 l 1xe0
265 249.4375 m 2xd8
 265 219.4375 l 1
 146 219.4375 l 1
 146 259.4375 l 2
 146 357 158.857975923 398.89883288 224 461 c 0
 262.346679688 497.556640625 279 521.973632812 279 553 c 0
 279 591.388671875 253.263671875 615 205 615 c 0
 133.684570312 615 103 548 103 548 c 5
 8 634 l 1
 8 634 64.84765625 739 213 739 c 0
 344.697265625 739 426 661.571289062 426 561 c 0
 426 481.358398438 391.803710938 441.829101562 312.279296875 368.147460938 c 0
 272.8511413 331.616148839 265 295.6796875 265 249.4375 c 2xd8
EndSplineSet
EndChar

StartChar: five
Encoding: 53 53 67
Width: 537
Flags: W
HStem: -8 127<196.246 333.824> 380.921 114.603<203.267 330.849> 611 120<181.5 474.4>
VStem: 51.4004 130.1<457 611> 373.801 138.6<163.49 337.918>
LayerCount: 2
Fore
SplineSet
263.467773438 -8 m 0
 131.132342881 -8 24 68.5367965368 24 213 c 5
 161.900390625 213 l 5
 161.900390625 147.079251803 209.134300938 119 267.391601562 119 c 0
 329.797153452 119 373.80078125 158.072 373.80078125 251 c 0
 373.80078125 332.187241126 337.28528867 380.920898438 264.764648438 380.920898438 c 0
 185.229873132 380.920898438 163.400390625 321 163.400390625 321 c 9
 51.400390625 321 l 1
 51.400390625 731 l 25
 474.400390625 731 l 1
 474.400390625 611 l 1
 181.5 611 l 1
 181.5 457 l 17
 181.5 457 212.131347067 495.5234375 298.361328125 495.5234375 c 0
 430.820138896 495.5234375 512.400390625 396.421957953 512.400390625 249 c 0
 512.400390625 71.156 404.924362362 -8 263.467773438 -8 c 0
EndSplineSet
Substitution2: "'sinf' Scientific Inferiors lookup 0 subtable" five.inferior
Substitution2: "'sups' Superscript lookup 0 subtable" five.superior
EndChar

StartChar: six
Encoding: 54 54 68
Width: 548
Flags: W
HStem: -11 119<210.342 343.74> 348 118<209.731 346.398> 618 121<216.877 342.49>
VStem: 30 145<145.147 313.522 418.1 570.832> 371 139<516 588.173> 379 144<143.527 314.27>
LayerCount: 2
Fore
SplineSet
523 210 m 2xf4
 523 85.9139344262 442.078521229 -11 276.362304688 -11 c 0
 109.862503429 -11 30 80.3846153846 30 253 c 2
 30 482 l 2
 30 625.102272727 109.548294868 739 278.0546875 739 c 0
 425.474876579 739 510 654.938153297 510 516 c 1
 371 516 l 1xf8
 371 579.152519894 342.152683927 618 278.239257812 618 c 0
 198.775824011 618 175 555.288590604 175 472 c 2
 175 418.099609375 l 1
 175 418.099609375 209.646616541 466 303 466 c 0
 442.272738788 466 523 370.840163934 523 249 c 2
 523 210 l 2xf4
177 218 m 2
 177 155.751937984 203.302083333 108 278 108 c 0
 351.927835052 108 379 155.751937984 379 218 c 2
 379 241 l 2xf4
 379 301.550387597 351.927835052 348 278 348 c 4
 203.302083333 348 177 301.550387597 177 241 c 2
 177 218 l 2
EndSplineSet
Substitution2: "'sinf' Scientific Inferiors lookup 0 subtable" six.inferior
Substitution2: "'sups' Superscript lookup 0 subtable" six.superior
EndChar

StartChar: seven
Encoding: 55 55 69
Width: 511
Flags: W
HStem: 0 21G<80 253.407> 611 120<35 330>
LayerCount: 2
Back
SplineSet
140 0 m 5
 140 281 330 611 330 611 c 5
 156 611 l 5
 156 500 l 5
 35 500 l 5
 35 731 l 5
 476 731 l 5
 476 621 476 621 476 621 c 5
 476 621 286 333 286 0 c 5
 140 0 l 5
EndSplineSet
Fore
SplineSet
80 0 m 1
 330 611 l 1
 35 611 l 1
 35 731 l 1
 476 731 l 1
 476 621 l 1
 246 0 l 1
 80 0 l 1
EndSplineSet
Substitution2: "'sinf' Scientific Inferiors lookup 0 subtable" seven.inferior
Substitution2: "'sups' Superscript lookup 0 subtable" seven.superior
EndChar

StartChar: eight
Encoding: 56 56 70
Width: 544
Flags: W
HStem: -10 124<198.456 345.351> 314 122<207.022 336.562> 617 122<205.828 337.97>
VStem: 25 145<143.604 285.947> 38 143<462.343 593.811> 363 143<462.343 593.593> 374 145<143.604 285.947>
LayerCount: 2
Fore
SplineSet
272 617 m 0xec
 204.940221208 617 181 580.913567877 181 538 c 2
 181 515 l 2
 181 476.04104099 208.398053459 436 272 436 c 0
 334.579474631 436 363 476.04104099 363 515 c 2
 363 538 l 2
 363 580.913567877 338.037306882 617 272 617 c 0xec
272 114 m 0
 338.744140625 114 374 144 374 203 c 2
 374 225 l 2
 374 284 338.744140625 314 272 314 c 0
 204.255859375 314 170 284 170 225 c 2
 170 203 l 2xf2
 170 144 204.255859375 114 272 114 c 0
272 739 m 0
 438.608398438 739 506 658 506 550 c 2
 506 535 l 2xec
 506 410.333028017 409 382 409 382 c 1
 409 382 519 353 519 223 c 2
 519 185 l 2
 519 70 440.110351562 -10 272 -10 c 0
 103.889648438 -10 25 70 25 185 c 2
 25 223 l 2xf2
 25 353 135 382 135 382 c 1
 135 382 38 410.333028017 38 535 c 2
 38 550 l 2xe8
 38 658 105.391601562 739 272 739 c 0
EndSplineSet
Substitution2: "'sinf' Scientific Inferiors lookup 0 subtable" eight.inferior
Substitution2: "'sups' Superscript lookup 0 subtable" eight.superior
EndChar

StartChar: nine
Encoding: 57 57 71
Width: 548
Flags: W
HStem: -11 121<208.944 340.56> 257 118<205.699 345.208> 620 119<209.26 342.658>
VStem: 30 144<407.332 583.074> 43 139<139.06 203> 378 145<151.284 304.9 408.833 583.444>
LayerCount: 2
Fore
SplineSet
30 516 m 2xf4
 30 641.208532601 110.921875 739 276.637695312 739 c 0
 443.137695312 739 523 647.96138879 523 476 c 2
 523 246 l 2
 523 102.897460938 443.452148438 -11 274.9453125 -11 c 0
 127.525390625 -11 43 69.6689058997 43 203 c 1
 182 203 l 1xec
 182 145.419921875 210.84765625 110 274.760742188 110 c 0
 354.224609375 110 378 170.563302654 378 251 c 2
 378 304.900390625 l 1
 378 304.900390625 343.353515625 257 250 257 c 0
 110.727539062 257 30 351.283253322 30 472 c 2
 30 516 l 2xf4
376 508 m 2
 376 571.379774306 349.697916667 620 275 620 c 0
 201.072265625 620 174 571.379774306 174 508 c 2
 174 480 l 2xf4
 174 420.580965095 201.072265625 375 275 375 c 4
 349.697916667 375 376 420.580965095 376 480 c 2
 376 508 l 2
EndSplineSet
Substitution2: "'sinf' Scientific Inferiors lookup 0 subtable" nine.inferior
Substitution2: "'sups' Superscript lookup 0 subtable" nine.superior
EndChar

StartChar: quotesingle
Encoding: 39 39 72
Width: 218
Flags: W
HStem: 455 276<60 158>
VStem: 60 98<455 551.6>
LayerCount: 2
Fore
SplineSet
60 455 m 5
 40 731 l 5
 178 731 l 5
 158 455 l 5
 60 455 l 5
EndSplineSet
EndChar

StartChar: plus
Encoding: 43 43 74
Width: 450
Flags: W
HStem: 314 119<14.6504 435.35>
VStem: 165.5 119<163.15 583.85>
LayerCount: 2
Fore
SplineSet
284.5 163.150390625 m 1
 165.5 163.150390625 l 1
 165.5 583.849609375 l 1
 284.5 583.849609375 l 1
 284.5 163.150390625 l 1
14.650390625 314 m 1
 14.650390625 433 l 1
 435.349609375 433 l 1
 435.349609375 314 l 1
 14.650390625 314 l 1
EndSplineSet
EndChar

StartChar: equal
Encoding: 61 61 75
Width: 450
Flags: W
HStem: 214 119<14.6504 435.35> 414 119<14.6504 435.35>
LayerCount: 2
Fore
SplineSet
14.650390625 214 m 5
 14.650390625 333 l 5
 435.349609375 333 l 5
 435.349609375 214 l 5
 14.650390625 214 l 5
14.650390625 414 m 5
 14.650390625 533 l 5
 435.349609375 533 l 5
 435.349609375 414 l 5
 14.650390625 414 l 5
EndSplineSet
EndChar

StartChar: less
Encoding: 60 60 76
Width: 450
Flags: W
LayerCount: 2
Fore
SplineSet
182.37109375 373.5 m 1
 435.349609375 283 l 1
 435.349609375 154 l 1
 14.650390625 314 l 1
 14.650390625 433 l 1
 435.349609375 593 l 1
 435.349609375 464 l 1
 182.37109375 373.5 l 1
EndSplineSet
EndChar

StartChar: greater
Encoding: 62 62 77
Width: 450
Flags: W
LayerCount: 2
Fore
SplineSet
267.62890625 373.5 m 5
 14.650390625 464 l 5
 14.650390625 593 l 5
 435.349609375 433 l 5
 435.349609375 314 l 5
 14.650390625 154 l 5
 14.650390625 283 l 5
 267.62890625 373.5 l 5
EndSplineSet
EndChar

StartChar: dollar
Encoding: 36 36 78
Width: 592
Flags: W
HStem: -11 120<190.534 384.524> 623 116<225.965 398.978>
VStem: 48 143.8<481.971 590.717> 258 76<-107 820> 412.914 149.601<138.759 249.22>
LayerCount: 2
Fore
SplineSet
277.133789062 301.159179688 m 0
 119.379310754 343.442224722 48 406.129882812 48 523.418945312 c 0
 48 662 149 739 301.909179688 739 c 4
 456.38400609 739 537.198242188 661.765625 537.198242188 661.765625 c 5
 481.3046875 546.565429688 l 1
 481.3046875 546.565429688 416.42908342 623 294.376953125 623 c 4
 234.21875 623 191.799804688 587.853515625 191.799804688 540 c 0
 191.799804688 487.86328125 221.068496941 456.454006965 327.20703125 428.35546875 c 0
 509.671638205 380.05078125 562.514648438 313.927734375 562.514648438 198.4375 c 0
 562.514648438 64 460.514648438 -11 301.297851562 -11 c 0
 98.1701122406 -11 18 81 18 81 c 1
 82.439453125 192.485351562 l 1
 82.439453125 192.485351562 165.877630819 109 310.51171875 109 c 0
 371.333984375 109 412.9140625 139 412.9140625 191.77734375 c 0
 412.9140625 239.584960938 393.899792653 269.862304688 277.133789062 301.159179688 c 0
258 -107 m 5
 258 820 l 5
 334 820 l 5
 334 -107 l 5
 258 -107 l 5
EndSplineSet
EndChar

StartChar: slash
Encoding: 47 47 79
Width: 368
Flags: W
HStem: 751.002 20G<235.947 367>
LayerCount: 2
Fore
SplineSet
1 -178.994140625 m 5
 241 771.001953125 l 5
 367 771.001953125 l 5
 127 -178.994140625 l 5
 1 -178.994140625 l 5
EndSplineSet
EndChar

StartChar: bar
Encoding: 124 124 80
Width: 206
Flags: W
HStem: 751.002 20G<40 166>
VStem: 40 126<-178.994 771.002>
LayerCount: 2
Fore
SplineSet
40 -178.994140625 m 5
 40 771.001953125 l 1
 166 771.001953125 l 1
 166 -178.994140625 l 5
 40 -178.994140625 l 5
EndSplineSet
EndChar

StartChar: backslash
Encoding: 92 92 81
Width: 368
Flags: W
HStem: 751.002 20G<1 132.053>
LayerCount: 2
Fore
SplineSet
367 -178.994140625 m 1
 241 -178.994140625 l 1
 1 771.001953125 l 5
 127 771.001953125 l 5
 367 -178.994140625 l 1
EndSplineSet
EndChar

StartChar: bracketleft
Encoding: 91 91 82
Width: 355
Flags: W
HStem: -178.994 98.0078<166 320> 672.994 98.0078<166 320>
VStem: 40 280<-178.994 -80.9863 672.994 771.002> 40 126<-80.9863 672.994>
LayerCount: 2
Fore
SplineSet
166 672.994140625 m 5xd0
 166 -80.986328125 l 1xd0
 320 -80.986328125 l 1
 320 -178.994140625 l 1
 40 -178.994140625 l 1
 40 771.001953125 l 5
 320 771.001953125 l 5
 320 672.994140625 l 5xe0
 166 672.994140625 l 5xd0
EndSplineSet
EndChar

StartChar: bracketright
Encoding: 93 93 83
Width: 355
Flags: W
HStem: -178.994 98.0078<35 189> 672.994 98.0078<35 189>
VStem: 35 280<-178.994 -80.9863 672.994 771.002> 189 126<-80.9863 672.994>
LayerCount: 2
Fore
SplineSet
189 672.994140625 m 5xd0
 35 672.994140625 l 5
 35 771.001953125 l 5
 315 771.001953125 l 5
 315 -178.994140625 l 1
 35 -178.994140625 l 1
 35 -80.986328125 l 1xe0
 189 -80.986328125 l 1
 189 672.994140625 l 5xd0
EndSplineSet
EndChar

StartChar: braceright
Encoding: 125 125 84
Width: 436
Flags: W
HStem: -189.002 99.9961<35.0148 148.708> 261 106<300.192 401> 681.006 99.9961<35.0195 148.807>
VStem: 165 126<-72.5446 251.194 378.86 664.545>
LayerCount: 2
Fore
SplineSet
236 314 m 1
 236 314 165 337 165 419 c 2
 165 617.005859375 l 2
 165 657.256835938 139.1171875 681.005859375 93 681.005859375 c 0
 53.0654296875 681.005859375 35 674.005859375 35 674.005859375 c 1
 35 771.001953125 l 1
 35 771.001953125 70.25 781.001953125 125 781.001953125 c 0
 247.212890625 781.001953125 291 725.381835938 291 631.001953125 c 2
 291 429 l 2
 291 381.671875 312.861328125 367 356 367 c 2
 401 367 l 1
 401 261 l 1
 356 261 l 2
 312.861328125 261 291 246.328125 291 199 c 2
 291 -39.001953125 l 2
 291 -133.381835938 247.212890625 -189.001953125 125 -189.001953125 c 0
 65 -189.001953125 35 -179.001953125 35 -179.001953125 c 1
 35 -82.005859375 l 1
 35 -82.005859375 45.2783203125 -89.005859375 92 -89.005859375 c 4
 138.7578125 -89.005859375 165 -65.2568359375 165 -25.005859375 c 6
 165 209 l 2
 165 289 236 314 236 314 c 1
EndSplineSet
EndChar

StartChar: braceleft
Encoding: 123 123 85
Width: 436
Flags: W
HStem: -189.002 99.9961<287.292 400.985> 261 106<35 135.808> 681.006 99.9961<287.193 400.98>
VStem: 145 126<-72.5446 251.194 378.86 664.545>
LayerCount: 2
Fore
SplineSet
200 314 m 1
 200 314 271 289 271 209 c 2
 271 -25.005859375 l 2
 271 -65.2568359375 297.2421875 -89.005859375 344 -89.005859375 c 0
 390.721679688 -89.005859375 401 -82.005859375 401 -82.005859375 c 1
 401 -179.001953125 l 1
 401 -179.001953125 371 -189.001953125 311 -189.001953125 c 0
 188.787109375 -189.001953125 145 -133.381835938 145 -39.001953125 c 2
 145 199 l 2
 145 246.328125 123.138671875 261 80 261 c 2
 35 261 l 1
 35 367 l 1
 80 367 l 2
 123.138671875 367 145 381.671875 145 429 c 2
 145 631.001953125 l 2
 145 725.381835938 188.787109375 781.001953125 311 781.001953125 c 0
 365.75 781.001953125 401 771.001953125 401 771.001953125 c 1
 401 674.005859375 l 1
 401 674.005859375 382.934570312 681.005859375 343 681.005859375 c 0
 296.8828125 681.005859375 271 657.256835938 271 617.005859375 c 2
 271 419 l 2
 271 337 200 314 200 314 c 1
EndSplineSet
EndChar

StartChar: parenleft
Encoding: 40 40 86
Width: 341
Flags: W
HStem: 751.002 20G<240 340>
VStem: 40 131.137<130.554 470.568>
LayerCount: 2
Fore
SplineSet
171.137189503 300.837114383 m 4
 171.137189503 20.9999495819 340 -178.994140625 340 -178.994140625 c 5
 240 -178.994140625 l 5
 240 -178.994140625 40 -37 40 301.005859375 c 4
 40 613 240 771.001953125 240 771.001953125 c 5
 340 771.001953125 l 5
 340 771.001953125 171.137189503 577 171.137189503 300.837114383 c 4
EndSplineSet
EndChar

StartChar: parenright
Encoding: 41 41 87
Width: 341
Flags: W
HStem: 751.002 20G<1 101>
VStem: 169.863 131.137<130.554 470.568>
LayerCount: 2
Fore
SplineSet
169.86328125 300.836914062 m 0
 169.86328125 577 1 771.001953125 1 771.001953125 c 1
 101 771.001953125 l 1
 101 771.001953125 301 613 301 301.005859375 c 4
 301 -37 101 -178.994140625 101 -178.994140625 c 1
 1 -178.994140625 l 1
 1 -178.994140625 169.86328125 21 169.86328125 300.836914062 c 0
EndSplineSet
EndChar

StartChar: underscore
Encoding: 95 95 88
Width: 630
Flags: W
HStem: -98.0078 98.0078<35 595>
LayerCount: 2
Fore
SplineSet
35 -98.0078125 m 1
 35 0 l 1
 595 0 l 1
 595 -98.0078125 l 1
 35 -98.0078125 l 1
EndSplineSet
EndChar

StartChar: grave
Encoding: 96 96 89
Width: 230
Flags: W
HStem: 565 166
VStem: 1 228
LayerCount: 2
Fore
SplineSet
141 565 m 5
 1 731 l 5
 139 731 l 5
 229 565 l 5
 141 565 l 5
EndSplineSet
EndChar

StartChar: asciicircum
Encoding: 94 94 90
Width: 422
Flags: W
HStem: 452.011 278.989
LayerCount: 2
Fore
SplineSet
139.200195312 731 m 1
 278.5 731 l 5
 421.700195312 452.010742188 l 1
 301.700195312 452.010742188 l 1
 209.400390625 643 l 1
 121 450 l 1
 1 450 l 1
 139.200195312 731 l 1
EndSplineSet
EndChar

StartChar: ampersand
Encoding: 38 38 91
Width: 743
Flags: W
HStem: -9.99805 123.282<212.658 394.302> 0 142<592.848 718> 635.959 103.401<289.026 395.424>
VStem: 35 143.244<145.97 267.39> 147.32 127.033<480.97 621.234> 408.329 114.251<518.566 623.078>
LayerCount: 2
Fore
SplineSet
718 142 m 1x6c
 718 0 l 17
 541 0 471.615553847 66.4006697446 278.005859375 293.180664062 c 0
 164.633605319 425.976489193 147.3203125 493.35546875 147.3203125 559.932617188 c 0x6c
 147.3203125 668.98046875 218.008789062 739.360351562 343.895507812 739.360351562 c 0
 462.857421875 739.360351562 522.580078125 672.029296875 522.580078125 577.102539062 c 0
 522.580078125 493.830078125 479.989257812 437.041992188 336 360.236328125 c 0
 219.884765625 298.298828125 178.244140625 273 178.244140625 203 c 0
 178.244140625 151.114257812 216.02734375 113.284179688 288.047851562 113.284179688 c 0
 457 113.284179688 518 234 560 410 c 9
 685 381 l 17
 636 177 526 -9.998046875 291.74609375 -9.998046875 c 0
 145.515625 -9.998046875 35 65.9287109375 35 191.782226562 c 0xb4
 35 350.91015625 182.8515625 408.799804688 303.591796875 464.536132812 c 0
 390.317382812 504.5703125 408.329101562 535.840820312 408.329101562 573.333007812 c 0
 408.329101562 611.313476562 385.713867188 635.958984375 342.720703125 635.958984375 c 0
 299.142578125 635.958984375 274.353515625 611 274.353515625 567 c 0
 274.353515625 519.607421875 284.0625 470.056640625 403.78125 335.806640625 c 0
 538.728991404 184.479181196 578.478515625 142 718 142 c 1x6c
EndSplineSet
EndChar

StartChar: percent
Encoding: 37 37 92
Width: 838
Flags: W
HStem: -10 100.462<599.278 687.883> 0 21G<164.358 300.755> 274.628 100.462<599.278 687.883> 353.902 100.462<150.303 238.908> 638.53 100.462<150.303 238.908> 711.008 20G<533.962 670.358>
VStem: 30 110.552<466.204 626.69> 249.036 110.552<466.204 626.69> 478.975 110.552<102.302 262.788> 698.011 110.552<102.302 262.788>
LayerCount: 2
Fore
SplineSet
808.5625 152.115234375 m 2xa3c0
 808.5625 58.2587890625 756.4140625 -10 643.358398438 -10 c 0
 530.376953125 -10 478.974609375 58.2587890625 478.974609375 152.115234375 c 2
 478.974609375 212.974609375 l 2
 478.974609375 306.831054688 530.376953125 375.08984375 643.358398438 375.08984375 c 0
 756.4140625 375.08984375 808.5625 306.831054688 808.5625 212.974609375 c 2
 808.5625 152.115234375 l 2xa3c0
589.526367188 154.8359375 m 2
 589.526367188 117.565429688 603.37109375 90.4619140625 643.768554688 90.4619140625 c 0
 684.166992188 90.4619140625 698.010742188 117.565429688 698.010742188 154.8359375 c 2
 698.010742188 210.25390625 l 2
 698.010742188 247.524414062 684.166992188 274.627929688 643.768554688 274.627929688 c 0
 603.37109375 274.627929688 589.526367188 247.524414062 589.526367188 210.25390625 c 2
 589.526367188 154.8359375 l 2
359.587890625 516.017578125 m 2
 359.587890625 422.161132812 307.439453125 353.90234375 194.383789062 353.90234375 c 0
 81.40234375 353.90234375 30 422.161132812 30 516.017578125 c 2
 30 576.876953125 l 2
 30 670.733398438 81.40234375 738.9921875 194.383789062 738.9921875 c 0x1bc0
 307.439453125 738.9921875 359.587890625 670.733398438 359.587890625 576.876953125 c 2
 359.587890625 516.017578125 l 2
140.551757812 518.73828125 m 2
 140.551757812 481.467773438 154.395507812 454.364257812 194.793945312 454.364257812 c 0
 235.19140625 454.364257812 249.036132812 481.467773438 249.036132812 518.73828125 c 2
 249.036132812 574.15625 l 2
 249.036132812 611.426757812 235.19140625 638.530273438 194.793945312 638.530273438 c 0
 154.395507812 638.530273438 140.551757812 611.426757812 140.551757812 574.15625 c 2
 140.551757812 518.73828125 l 2
164.358398438 0 m 1x47c0
 544.358398438 731.0078125 l 1
 670.358398438 731.0078125 l 1
 290.358398438 0 l 1
 164.358398438 0 l 1x47c0
EndSplineSet
EndChar

StartChar: at
Encoding: 64 64 93
Width: 705
Flags: W
HStem: -111 116<250.837 572.507> 129 110<400.49 503.043> 439.251 104.76<437.938 553.462> 655 116<247.608 462.152>
VStem: 25.9346 137<88.6885 566.813> 246.586 135<257.792 391.57> 539.462 14<187 243.339 439.251 544.011>
LayerCount: 2
Fore
SplineSet
553.461914062 187 m 1
 553.461914062 187 507.115722989 129 406.487304688 129 c 0
 304.169510428 129 246.5859375 207.344902979 246.5859375 308.96484375 c 0
 246.5859375 507.252473194 407.064193496 542.960986918 553.461914062 544.010742188 c 1
 553.461914062 439.250976562 l 1
 414.332646832 432.94869157 381.5859375 394.879696529 381.5859375 316.536132812 c 0
 381.5859375 273.616671546 400.163647684 239 458.131835938 239 c 0
 529.895150199 239 553.461914062 295.764648438 553.461914062 295.764648438 c 1
 553.461914062 187 l 1
663 55 m 1
 663 -63 l 1
 663 -63 578.913124287 -111 398.793945312 -111 c 0
 144.819126231 -111 25.9345703125 -26.8014334469 25.9345703125 203 c 2
 25.9345703125 445 l 2
 25.9345703125 649.31993007 124.881177357 771 360.374023438 771 c 4
 571.201055618 771 670.461914062 670.271873984 670.461914062 463.700195312 c 2
 670.461914062 256.66796875 l 2
 670.461914062 186.650665031 692.013671875 139 692.013671875 139 c 1
 561.461914062 139 l 1
 561.461914062 139 539.461914062 169.915219907 539.461914062 243.338867188 c 2
 539.461914062 451.661132812 l 2
 539.461914062 579.68930845 503.913741263 655 358.934570312 655 c 4
 212.39364624 655 162.934570312 592.132743363 162.934570312 433 c 2
 162.934570312 215 l 2
 162.934570312 69.9001374632 198.524091702 5 398.934570312 5 c 0
 548.956300249 5 663 55 663 55 c 1
EndSplineSet
EndChar

StartChar: numbersign
Encoding: 35 35 94
Width: 665
Flags: W
HStem: 0 21G<80 209.83 320 449.83> 167.992 118.008<35 586> 427.992 118.008<79 630> 711.008 20G<216.17 346 456.17 586>
LayerCount: 2
Fore
SplineSet
35 167.9921875 m 1
 35 286 l 1
 586 286 l 5
 586 167.9921875 l 5
 35 167.9921875 l 1
79 427.9921875 m 1
 79 546 l 1
 630 546 l 5
 630 427.9921875 l 5
 79 427.9921875 l 1
320 0 m 5
 460 731.0078125 l 5
 586 731.0078125 l 5
 446 0 l 5
 320 0 l 5
80 0 m 1
 220 731.0078125 l 1
 346 731.0078125 l 1
 206 0 l 1
 80 0 l 1
EndSplineSet
EndChar

StartChar: asterisk
Encoding: 42 42 95
Width: 351
Flags: W
HStem: 718.992 20G<124.812 226.812>
VStem: 129.77 92.0674<631.089 738.992>
LayerCount: 2
Fore
SplineSet
121.145507812 400.6796875 m 1
 38 474.825195312 l 1
 110.08203125 546.4921875 l 1
 3 583.159179688 l 1
 46.1455078125 678.3046875 l 1
 129.76953125 631.088867188 l 1
 124.8125 738.9921875 l 1
 226.8125 738.9921875 l 1
 221.836914062 630.887695312 l 1
 307.479492188 678.3046875 l 1
 348.625 583.159179688 l 1
 241.543945312 546.4921875 l 1
 313.625 473.825195312 l 5
 230.479492188 399.6796875 l 5
 175.8125 485.76171875 l 1
 121.145507812 400.6796875 l 1
EndSplineSet
EndChar

StartChar: question.ss01
Encoding: 65536 -1 96
Width: 532
Flags: W
HStem: 0 146<170 326> 620 119<184.541 327.787>
VStem: 170 156<0 146> 183 123<219.438 281.5> 357 145<471.956 591.77>
LayerCount: 2
Fore
SplineSet
170 0 m 1xe8
 170 146 l 1
 326 146 l 1
 326 0 l 1
 170 0 l 1xe8
306 219.4375 m 1xd8
 183 219.4375 l 5
 183 321.310546875 208.598632812 358.568359375 277.701171875 415.172851562 c 0
 324.759765625 453.720703125 357 483.973632812 357 531.59765625 c 0
 357 584.388671875 323.224609375 620 257.434570312 620 c 0
 193.208984375 620 157.670898438 591.140625 149 526 c 1
 20 544 l 1
 35.349609375 681.45703125 119.773649601 739 256.075195312 739 c 0
 401.815016491 739 502 664.571289062 502 536.418945312 c 0
 502 432.358398438 451.3671875 387.419921875 391.548828125 340.447265625 c 0
 324.061523438 287.452148438 306 265.6796875 306 219.4375 c 1xd8
EndSplineSet
EndChar

StartChar: A.ss02
Encoding: 65537 -1 97
Width: 625
Flags: W
HStem: 0 20G<39.9996 186 440.1 586.1> 245 118.008<55 565> 609 132<233.11 393.875>
VStem: 39.9996 146<0 557.283> 440.1 146<0 557.283>
LayerCount: 2
Fore
SplineSet
55 245 m 1
 55 363.0078125 l 1
 565 363.0078125 l 1
 565 245 l 1
 55 245 l 1
EndSplineSet
Refer: 2 85 S -1 0 0 -1 626.1 731 2
EndChar

StartChar: A.ss03
Encoding: 65538 -1 98
Width: 625
Flags: W
HStem: 0 21G<40 186 440.1 586.1> 245 118.008<55 565> 599 132<266.749 440.1>
VStem: 40 146<0 245 363.008 521.182> 55 131<245 363.008> 440.1 146<0 245 363.008 599> 440.1 124.9<245 363.008>
LayerCount: 2
Fore
SplineSet
55 245 m 1xea
 55 363.0078125 l 1
 565 363.0078125 l 1
 565 245 l 1
 55 245 l 1xea
586.099609375 731 m 25xf4
 586.099609375 0 l 1
 440.099609375 0 l 1
 440.099609375 599 l 1
 383.599609375 599 l 2
 207 599 186 518.333007812 186 399 c 2
 186 0 l 1
 40 0 l 1
 40 417 l 2
 40 599.393554688 119 731 373.599609375 731 c 6
 586.099609375 731 l 25xf4
EndSplineSet
EndChar

StartChar: A.ss04
Encoding: 65539 -1 99
Width: 625
Flags: W
HStem: 0 21G<40 186 440.1 586.1> 245 118.008<55 565> 599 132<186 359.351>
VStem: 40 146<0 245 363.008 599> 55 131<245 363.008> 440.1 146<0 245 363.008 521.182> 440.1 124.9<245 363.008>
LayerCount: 2
Fore
SplineSet
55 245 m 1xea
 55 363.0078125 l 1
 565 363.0078125 l 1
 565 245 l 1
 55 245 l 1xea
40 731 m 29xf4
 252.5 731 l 6
 507.099609375 731 586.099609375 599.393554688 586.099609375 417 c 6
 586.099609375 0 l 5
 440.099609375 0 l 5
 440.099609375 399 l 6
 440.099609375 518.333007812 419.099609375 599 242.5 599 c 6
 186 599 l 5
 186 0 l 5
 40 0 l 5
 40 731 l 29xf4
EndSplineSet
EndChar

StartChar: C.ss05
Encoding: 65540 -1 100
Width: 515
Flags: W
HStem: -11 127<221.463 470.786> 612 127<219.819 466.728>
VStem: 30 145<163.842 564.158>
LayerCount: 2
Fore
SplineSet
303.060546875 739 m 4
 454.1796875 739 487.266601562 711 487.266601562 711 c 1
 487.266601562 583 l 1
 487.266601562 583 419.973632812 612 309.952148438 612 c 4
 210.700195312 612 175 572.295302013 175 473 c 2
 175 255 l 2
 175 155.704697987 210.700195312 116 314.009765625 116 c 4
 424.03125 116 491.32421875 145 491.32421875 145 c 1
 491.32421875 17 l 1
 491.32421875 17 458.237304688 -11 307.118164062 -11 c 4
 111 -11 30 91.568359375 30 233 c 2
 30 495 l 2
 30 636.431640625 111 739 303.060546875 739 c 4
EndSplineSet
EndChar

StartChar: E.ss05
Encoding: 65541 -1 101
Width: 515
Flags: W
HStem: -11 127<221.463 470.786> 314 119<80 437.5> 612 127<219.819 466.728>
VStem: 30 145<163.842 564.158>
LayerCount: 2
Fore
SplineSet
80 314 m 1
 80 433 l 1
 437.5 433 l 1
 437.5 314 l 1
 80 314 l 1
EndSplineSet
Refer: 100 -1 N 1 0 0 1 0 0 2
EndChar

StartChar: F.ss05
Encoding: 65542 -1 102
Width: 515
Flags: W
HStem: 0 21G<30 175> 274 119<81 408.5> 612 127<219.819 466.728>
VStem: 30 145<0 274 393 564.005> 81 94<274 393>
LayerCount: 2
Fore
SplineSet
81 274 m 1xe8
 81 393 l 1
 408.5 393 l 1
 408.5 274 l 1
 81 274 l 1xe8
175 0 m 5xf0
 30 0 l 5
 30 495 l 6
 30 636 111 739 303.060546875 739 c 4
 454.1796875 739 487.266601562 711 487.266601562 711 c 5
 487.266601562 583 l 5
 487.266601562 583 419.973632812 612 309.952148438 612 c 4
 210.700195312 612 175 572 175 473 c 6
 175 0 l 5xf0
EndSplineSet
EndChar

StartChar: G.ss05
Encoding: 65543 -1 103
Width: 595
Flags: W
HStem: -11 127<225.533 424.263> 612 127<254.526 516.032>
VStem: 30 145<169.793 539.519> 425.324 146<125.707 378>
LayerCount: 2
Fore
SplineSet
343.060546875 739 m 0
 494.1796875 739 537.266601562 711 537.266601562 711 c 1
 537.266601562 583 l 1
 537.266601562 583 469.973632812 612 359.952148438 612 c 0
 230.700195312 612 175 552.294921875 175 453 c 6
 175 255 l 2
 175 155.704697987 220.700195312 116 324.009765625 116 c 0
 404 116 425.32421875 125.70703125 425.32421875 125.70703125 c 1
 425.32421875 378 l 1
 571.32421875 378 l 1
 571.32421875 25 l 1
 571.32421875 25 521 -11 317.118164062 -11 c 0
 121 -11 30 91.568359375 30 233 c 2
 30 475 l 6
 30 616.431640625 121 739 343.060546875 739 c 0
EndSplineSet
EndChar

StartChar: K.ss06
Encoding: 65544 -1 104
Width: 600
Flags: W
HStem: 0 21G<40 186 442.462 587.014> 299 122<323.6 392.339> 711 20G<40 186 397.045 586.8>
VStem: 40 146<0 299 421 731> 420.1 146<0.849152 265.716>
LayerCount: 2
Fore
SplineSet
412.700195312 731 m 1
 586.799804688 731 l 1
 241 322 l 1
 163 412 l 1
 412.700195312 731 l 1
40 0 m 1
 40 731 l 1
 186 731 l 1
 186 0 l 1
 40 0 l 1
566.099609375 117 m 6
 566.099609375 47 587.013671875 0 587.013671875 0 c 5
 442.461914062 0 l 5
 442.461914062 0 420.099609375 38 420.099609375 111 c 6
 420.099609375 199 l 6
 420.099609375 261.647460938 390.771484375 299 323.599609375 299 c 6
 173.599609375 299 l 5
 173.599609375 421 l 5
 336 421 l 6
 477.118164062 421 566.099609375 356.145507812 566.099609375 217 c 6
 566.099609375 117 l 6
EndSplineSet
EndChar

StartChar: L.ss05
Encoding: 65545 -1 105
Width: 515
Flags: W
HStem: -10 127<228.313 466.728> 711 20G<40 185>
VStem: 40 145<159.124 731>
LayerCount: 2
Fore
SplineSet
185 731 m 5
 185 256 l 6
 185 157 218.054798724 117 309.952148438 117 c 0
 419.973632812 117 487.266601562 146 487.266601562 146 c 1
 487.266601562 18 l 1
 487.266601562 18 454.1796875 -10 303.060546875 -10 c 0
 118.033624926 -10 40 93 40 234 c 6
 40 731 l 5
 185 731 l 5
EndSplineSet
EndChar

StartChar: M.ss02
Encoding: 65546 -1 106
Width: 942
Flags: W
HStem: 0 21G<40 186 400.1 541.9 756 902> 609 132<224.78 362.71 579.29 717.22>
VStem: 40 146<0 571.749> 400.1 141.801<0 557> 425.9 90.1992<0 638.181> 756 146<0 571.749>
LayerCount: 2
Fore
SplineSet
425.900390625 507 m 6xec
 425.900390625 638.181463767 495.186104911 741 668.400390625 741 c 4
 841.205055336 741 902 638.181463767 902 507 c 6
 902 0 l 5
 756 0 l 5
 756 489 l 6
 756 556.999720982 730.027765685 609 648.400390625 609 c 4
 566.904902884 609 541.900390625 556.999720982 541.900390625 489 c 6
 541.900390625 0 l 5xf4
 425.900390625 0 l 5
 425.900390625 507 l 6xec
516.099609375 507 m 2xec
 516.099609375 0 l 1xec
 400.099609375 0 l 1
 400.099609375 489 l 2xf4
 400.099609375 556.999720982 375.095097116 609 293.599609375 609 c 0
 211.972234315 609 186 556.999720982 186 489 c 2
 186 0 l 1
 40 0 l 1
 40 507 l 2
 40 638.181463767 100.794944664 741 273.599609375 741 c 0
 446.813895089 741 516.099609375 638.181463767 516.099609375 507 c 2xec
EndSplineSet
EndChar

StartChar: R.ss07
Encoding: 65548 -1 108
Width: 569
Flags: W
HStem: 0 21G<40 186 411.462 556.014> 291 131<155.6 349.777> 330 92<141 155.6 271 349.777> 330 51<155.6 445.731> 607 122<186 361.002>
VStem: 40 146<0 291 422 607> 141 45<381 422> 155.6 30.4004<291 381> 389.1 146<0.849152 265.09 451.732 576.17>
LayerCount: 2
Fore
SplineSet
535.099609375 117 m 2x9980
 535.099609375 47 556.013671875 0 556.013671875 0 c 1
 411.461914062 0 l 1
 411.461914062 0 389.099609375 38 389.099609375 111 c 2
 389.099609375 199 l 2
 389.099609375 256.635664062 359.467565981 291 291.599609375 291 c 2
 155.599609375 291 l 1xc980
 155.599609375 381 l 1
 304 381 l 2
 445.731455691 381 535.099609375 328.862074908 535.099609375 217 c 2
 535.099609375 117 l 2x9980
40 731 m 1xcc80
 291.900390625 729 l 2
 452.176717472 728.093457944 532.400390625 658.822265625 532.400390625 531 c 6
 532.400390625 516 l 6
 532.400390625 401.35546875 462.514648438 330 299.700195312 330 c 2
 141 330 l 1
 141 422 l 17xaa80
 271 422 l 2
 349.77734375 422 387.400390625 447.599609375 387.400390625 510 c 2
 387.400390625 520 l 2
 387.400390625 582.2421875 350.766319086 607 272.099609375 607 c 2
 186 607 l 1
 186 0 l 1
 40 0 l 1
 40 731 l 1xcc80
EndSplineSet
EndChar

StartChar: S.ss08
Encoding: 65549 -1 109
Width: 446
Flags: W
HStem: -11 126<35.5109 225.33> 614 125<215.35 404.764>
VStem: 44.4854 147.8<485.671 588.938> 264.399 151.601<150.858 257.371>
LayerCount: 2
Fore
SplineSet
44.4853515625 539.418945312 m 0
 44.4853515625 673.648926475 133.27752612 739 302 739 c 0
 370.255973988 739 404.790039062 727.565429688 404.790039062 727.565429688 c 1
 404.790039062 602.565429688 l 1
 404.790039062 602.565429688 367.756661856 614 314 614 c 0
 236.64662923 614 192.28515625 594.394592285 192.28515625 546 c 0
 192.28515625 507.058624582 209.137503621 482.265405224 272.587890625 427.858398438 c 0
 376.312136569 338.917636696 416 288.382152787 416 193.4375 c 0
 416 62.2098518123 307.998367698 -11 142.783203125 -11 c 0
 75.8683713995 -11 35.4853515625 -6 35.4853515625 -6 c 1
 35.4853515625 123 l 1
 35.4853515625 123 64.9739728435 115 131.997070312 115 c 0
 199.444043563 115 264.399414062 137.994228265 264.399414062 200 c 0
 264.399414062 243.313498719 240.788266623 266.693144788 168.341796875 327.004882812 c 0
 73.7519890749 405.750965647 44.4853515625 455.943310132 44.4853515625 539.418945312 c 0
EndSplineSet
EndChar

StartChar: X.ss02
Encoding: 65551 -1 111
Width: 625
Flags: W
HStem: 0 21G<40 187 439.1 586.1> 290 150<230.239 394.886> 330 71<138.761 486.386> 711 20G<60 205 421.1 566.1>
VStem: 40 147<0 241.021> 60 145<471.641 731> 421.1 145<471.641 731> 439.1 147<0 241.021>
LayerCount: 2
Fore
SplineSet
40 167 m 2xd9
 40 308.181818182 125 401 312.5 401 c 0xb9
 500.099732159 401 586.099609375 308.181818182 586.099609375 167 c 2
 586.099609375 0 l 1
 439.099609375 0 l 1
 439.099609375 159 l 2
 439.099609375 233.233333333 408.541082974 290 312.5 290 c 4
 216.465217391 290 187 233.233333333 187 159 c 2
 187 0 l 1
 40 0 l 1
 40 167 l 2xd9
60 524 m 2xb6
 60 731 l 1
 205 731 l 1
 205 532 l 2
 205 479.866666667 230.239130435 440 312.5 440 c 0xd6
 394.88591056 440 421.099609375 479.866666667 421.099609375 532 c 2
 421.099609375 731 l 1
 566.099609375 731 l 1
 566.099609375 524 l 2
 566.099609375 405.242424243 486.386281867 330 312.5 330 c 0
 138.76146789 330 60 405.242424242 60 524 c 2xb6
EndSplineSet
EndChar

StartChar: Y.ss09
Encoding: 65552 -1 112
Width: 585
Flags: W
HStem: -9.99219 127<34.7776 332.029> 245.008 124<222.099 352.383> 711.008 20G<38.9004 180.9 403 545>
VStem: 38.9004 142<411.471 731.008> 403 142<186.518 300.48 410.857 731.008>
LayerCount: 2
Fore
SplineSet
38.900390625 477.0078125 m 2
 38.900390625 731.0078125 l 1
 180.900390625 731.0078125 l 1
 180.900390625 499.0078125 l 2
 180.900390625 425.341145834 206.843868886 369.0078125 291.400390625 369.0078125 c 0
 376.062163254 369.0078125 403 425.341145834 403 499.0078125 c 2
 403 731.0078125 l 1
 545 731.0078125 l 1
 545 264.0078125 l 2
 545 105.671746926 455.168124629 -9.9921875 221.939453125 -9.9921875 c 0
 90.9034469423 -9.9921875 34.7333984375 10.0078125 34.7333984375 10.0078125 c 1
 34.7333984375 138.0078125 l 1
 34.7333984375 138.0078125 99.36978295 117.0078125 205.047851562 117.0078125 c 0
 356.633806178 117.0078125 403 165.640906025 403 286.0078125 c 2
 403 300.48046875 l 1
 403 300.48046875 352.680781804 245.0078125 251.400390625 245.0078125 c 0
 105.184794295 245.0078125 38.900390625 326.232920725 38.900390625 477.0078125 c 2
EndSplineSet
EndChar

StartChar: V.ss03
Encoding: 65553 -1 113
Width: 625
Flags: W
HStem: 0 132<266.749 440.1> 711 20G<40 186 440.1 586.1>
VStem: 40 146<209.818 731> 440.1 146<132 731>
LayerCount: 2
Fore
SplineSet
586.099609375 0 m 25
 373.599609375 0 l 2
 119 0 40 131.606445312 40 314 c 2
 40 731 l 1
 186 731 l 1
 186 332 l 2
 186 212.666992188 207 132 383.599609375 132 c 2
 440.099609375 132 l 1
 440.099609375 731 l 1
 586.099609375 731 l 1
 586.099609375 0 l 25
EndSplineSet
EndChar

StartChar: V.ss04
Encoding: 65554 -1 114
Width: 625
Flags: W
HStem: 0 132<186 359.351> 711 20G<40 186 440.1 586.1>
VStem: 40 146<132 731> 440.1 146<209.818 731>
LayerCount: 2
Fore
SplineSet
40 0 m 25
 40 731 l 1
 186 731 l 1
 186 132 l 1
 242.5 132 l 2
 419.099609375 132 440.099609375 212.666992188 440.099609375 332 c 2
 440.099609375 731 l 1
 586.099609375 731 l 1
 586.099609375 314 l 2
 586.099609375 131.606445312 507.099609375 0 252.5 0 c 2
 40 0 l 25
EndSplineSet
EndChar

StartChar: cent
Encoding: 162 162 115
Width: 486
Flags: W
HStem: 49 115<200.817 377.264> 510 115<200.817 374.016> 710 20G<249 325>
VStem: 36.1846 130.95<202.066 471.934> 249 76<-27 730>
LayerCount: 2
Fore
SplineSet
249 -27 m 1
 249 730 l 1
 325 730 l 1
 325 -27 l 1
 249 -27 l 1
263.190429688 49 m 0
 104.205078125 49 36.1845703125 152.57421875 36.1845703125 283 c 2
 36.1845703125 391 l 2
 36.1845703125 521.42578125 104.205078125 625 263.190429688 625 c 0
 395.734375 625 468.818359375 566.91796875 468.818359375 566.91796875 c 1
 423.551757812 460.826171875 l 1
 423.551757812 460.826171875 366.46875 510 262.81640625 510 c 0
 189.181640625 510 167.134765625 456.340820312 167.134765625 389 c 2
 167.134765625 285 l 2
 167.134765625 217.659179688 189.181640625 164 262.81640625 164 c 0
 374.491210938 164 420.703125 212.313476562 420.703125 212.313476562 c 1
 468 104.4765625 l 1
 468 104.4765625 400.38671875 49 263.190429688 49 c 0
EndSplineSet
EndChar

StartChar: N.ss03
Encoding: 65555 -1 116
Width: 625
Flags: W
HStem: 0 21G<40 186 440.1 586.1> 599 132<266.749 440.1>
VStem: 40 146<0 521.182> 440.1 146<0 599>
LayerCount: 2
Fore
SplineSet
586.099609375 731 m 25
 586.099609375 0 l 1
 440.099609375 0 l 1
 440.099609375 599 l 1
 383.599609375 599 l 2
 207 599 186 518.333007812 186 399 c 2
 186 0 l 1
 40 0 l 1
 40 417 l 2
 40 599.393554688 119 731 373.599609375 731 c 2
 586.099609375 731 l 25
EndSplineSet
EndChar

StartChar: N.ss04
Encoding: 65556 -1 117
Width: 625
Flags: W
HStem: 0 21G<40 186 440.1 586.1> 599 132<186 359.351>
VStem: 40 146<0 599> 440.1 146<0 521.182>
LayerCount: 2
Fore
SplineSet
40 731 m 25
 252.5 731 l 2
 507.099609375 731 586.099609375 599.393554688 586.099609375 417 c 2
 586.099609375 0 l 1
 440.099609375 0 l 1
 440.099609375 399 l 2
 440.099609375 518.333007812 419.099609375 599 242.5 599 c 2
 186 599 l 1
 186 0 l 1
 40 0 l 1
 40 731 l 25
EndSplineSet
EndChar

StartChar: asciitilde
Encoding: 126 126 118
Width: 533
Flags: W
HStem: 278.475 114.759<323.537 399.867> 382.233 114.759<138.859 213.917>
LayerCount: 2
Fore
SplineSet
359.915039062 278.474609375 m 0x80
 253.152797767 278.474609375 228.57894083 382.233398438 172 382.233398438 c 0
 125.086315524 382.233398438 120 305.233398438 120 305.233398438 c 1
 10 335.233398438 l 1
 10 335.233398438 25.0204195935 496.9921875 173.084960938 496.9921875 c 0x40
 292.130032195 496.9921875 307.397070602 393.233398438 366 393.233398438 c 0
 412.9721318 393.233398438 419 473.233398438 419 473.233398438 c 1
 523 443.233398438 l 1
 523 443.233398438 509.026908356 278.474609375 359.915039062 278.474609375 c 0x80
EndSplineSet
EndChar

StartChar: sterling
Encoding: 163 163 119
Width: 672
Flags: W
HStem: -10 118<330.506 480.14> 0 118<23 153.946> 305 118.008<45 435> 619 120<274.556 431.018>
VStem: 97 139<425.076 582.8> 167 145<103 287.694> 478.3 141<470 566.69> 524.563 127.948<153.959 211.149>
LayerCount: 2
Fore
SplineSet
45 305 m 1x30
 45 423.0078125 l 1
 435 423.0078125 l 1
 435 305 l 1
 45 305 l 1x30
429.213867188 -10 m 0xb1
 295.755234171 -10 245 68 245 68 c 1
 289 170 l 1
 289 170 322.045758929 108 405 108 c 0
 491.934023473 108 516.188639388 155 524.563476562 231 c 1
 652.51171875 210 l 1
 640.255977425 68.095703125 572.022775918 -10 429.213867188 -10 c 0xb1
359.962890625 619 m 0
 256.801918932 619 236 568.928057554 236 503 c 4x7a
 236 389.127752667 312 303.413897281 312 142 c 0
 312 64 272.240234375 -1.59455781912e-14 142 0 c 2
 23 0 l 1
 23 118 l 1
 100 118 l 2
 145.548828125 118 167 141 167 185 c 0x74
 167 300.5 97 356.279882812 97 515 c 4
 97 639.346456693 175.923537448 739 363.060546875 739 c 0
 529.838518729 739 619.299804688 645.476702509 619.299804688 470 c 1
 478.299804688 470 l 1x7a
 478.299804688 571.243761565 441.499041876 619 359.962890625 619 c 0
EndSplineSet
EndChar

StartChar: currency
Encoding: 164 164 120
Width: 485
Flags: W
HStem: 153.532 108.966<183.988 301.273> 451.688 108.967<184.765 300.496>
VStem: 35.2803 119.989<292.461 422.146> 329.991 119.988<292.461 422.146>
LayerCount: 2
Fore
SplineSet
311.239257812 213.436523438 m 1
 389.889648438 246.325195312 l 1
 484.259765625 65.765625 l 1
 365.580078125 66.1455078125 l 1
 311.239257812 213.436523438 l 1
174.020507812 213.436523438 m 1
 119.6796875 66.1455078125 l 1
 1 65.765625 l 1
 95.3701171875 246.325195312 l 1
 174.020507812 213.436523438 l 1
311.239257812 497.74609375 m 1
 365.580078125 645.036132812 l 1
 484.259765625 644.416015625 l 1
 389.889648438 464.856445312 l 1
 311.239257812 497.74609375 l 1
174.020507812 497.74609375 m 1
 95.3701171875 464.856445312 l 1
 1 644.416015625 l 1
 119.6796875 645.036132812 l 1
 174.020507812 497.74609375 l 1
155.26953125 355.671875 m 0
 155.26953125 295.650390625 192.903320312 262.498046875 242.629882812 262.498046875 c 0
 292.359375 262.498046875 329.991210938 295.650390625 329.991210938 355.671875 c 0
 329.991210938 416.380859375 292.359375 451.688476562 242.629882812 451.688476562 c 0
 192.903320312 451.688476562 155.26953125 416.380859375 155.26953125 355.671875 c 0
35.2802734375 355.590820312 m 0
 35.2802734375 485.24609375 124.739257812 560.655273438 242.629882812 560.655273438 c 0
 360.520507812 560.655273438 449.979492188 485.24609375 449.979492188 355.590820312 c 0
 449.979492188 225.424804688 360.520507812 153.532226562 242.629882812 153.532226562 c 0
 124.739257812 153.532226562 35.2802734375 225.424804688 35.2802734375 355.590820312 c 0
EndSplineSet
EndChar

StartChar: yen
Encoding: 165 165 121
Width: 590
Flags: W
HStem: 0 21G<222.22 368.22> 156.5 68<60.5 526.5> 276.5 68<60.5 526.5> 289 54<232.22 358.22> 711 20G<3 168.578 421.862 587.44>
VStem: 222.22 146<0 343>
LayerCount: 2
Fore
SplineSet
526.5 156.5 m 5xcc
 60.5 156.5 l 1
 60.5 224.5 l 1
 526.5 224.5 l 5
 526.5 156.5 l 5xcc
526.5 276.5 m 5xec
 60.5 276.5 l 1
 60.5 344.5 l 1
 526.5 344.5 l 5
 526.5 276.5 l 5xec
EndSplineSet
Refer: 21 89 N 1 0 0 1 0 0 2
EndChar

StartChar: brokenbar
Encoding: 166 166 122
Width: 206
Flags: W
HStem: 751.002 20G<40 166>
VStem: 40 126<-178.994 231.004 361.004 771.002>
LayerCount: 2
Fore
SplineSet
40 361.00390625 m 1
 40 771.001953125 l 1
 166 771.001953125 l 1
 166 361.00390625 l 1
 40 361.00390625 l 1
40 231.00390625 m 5
 166 231.00390625 l 5
 166 -178.994140625 l 1
 40 -178.994140625 l 1
 40 231.00390625 l 5
EndSplineSet
EndChar

StartChar: section
Encoding: 167 167 123
Width: 487
Flags: W
HStem: -39 104<185.523 302.902> 674.992 104<184.098 301.477>
VStem: 20.1445 134.101<338.304 423.899> 40.1445 129.999<571.65 660.153> 316.856 129.999<79.8388 168.342> 332.755 134.101<316.093 401.689>
LayerCount: 2
Fore
SplineSet
150.463867188 518.9921875 m 17xe8
 150.463867188 518.9921875 20.14453125 476.360351562 20.14453125 370.588867188 c 0
 20.14453125 285.16015625 82.2236328125 227.69140625 215.509765625 198.68359375 c 0
 295.356445312 181.305664062 316.856445312 159.641601562 316.856445312 124.047851562 c 0
 316.856445312 90.07421875 292.607421875 65 244.340820312 65 c 0
 199.653320312 65 166.310546875 86.556640625 157.216796875 144.467773438 c 1
 33.71875 132.978515625 l 1
 46.5791015625 19.607421875 122.749023438 -39 239.333984375 -39 c 0
 358.814453125 -39 446.85546875 23.8515625 446.85546875 132.701171875 c 0
 446.85546875 221.541015625 386.059570312 282.25 261.78125 306.200195312 c 0
 172.87109375 323.333984375 154.245117188 348.92578125 154.245117188 380.260742188 c 0
 154.245117188 427.760742188 229.463867188 463.9921875 229.463867188 463.9921875 c 1
 150.463867188 518.9921875 l 17xe8
336.536132812 221 m 17
 336.536132812 221 466.85546875 263.631835938 466.85546875 369.403320312 c 0
 466.85546875 454.83203125 404.776367188 512.30078125 271.490234375 541.30859375 c 0
 191.643554688 558.686523438 170.143554688 580.350585938 170.143554688 615.944335938 c 0
 170.143554688 649.91796875 194.392578125 674.9921875 242.659179688 674.9921875 c 0
 287.346679688 674.9921875 320.689453125 653.435546875 329.783203125 595.524414062 c 1
 453.28125 607.013671875 l 1
 440.420898438 720.384765625 364.250976562 778.9921875 247.666015625 778.9921875 c 0
 128.185546875 778.9921875 40.14453125 716.140625 40.14453125 607.291015625 c 0
 40.14453125 518.451171875 100.940429688 457.7421875 225.21875 433.791992188 c 0
 314.12890625 416.658203125 332.754882812 391.06640625 332.754882812 359.731445312 c 0xd4
 332.754882812 312.231445312 257.536132812 276 257.536132812 276 c 1
 336.536132812 221 l 17
EndSplineSet
EndChar

StartChar: dieresis
Encoding: 168 168 124
Width: 426
Flags: W
HStem: 645 126<40 176 250 386>
VStem: 40 136<645 771> 250 136<645 771>
LayerCount: 2
Fore
SplineSet
250 645 m 5
 250 771 l 5
 386 771 l 5
 386 645 l 5
 250 645 l 5
40 645 m 1
 40 771 l 1
 176 771 l 1
 176 645 l 1
 40 645 l 1
EndSplineSet
EndChar

StartChar: guillemotleft
Encoding: 171 171 125
Width: 654
Flags: W
LayerCount: 2
Fore
SplineSet
294 311 m 5
 494 511 l 5
 654 511 l 5
 440.75 284 l 5
 654 57 l 5
 494 57 l 5
 294 257 l 5
 294 311 l 5
14 311 m 5
 214 511 l 5
 374 511 l 5
 160.75 284 l 5
 374 57 l 5
 214 57 l 5
 14 257 l 5
 14 311 l 5
EndSplineSet
EndChar

StartChar: guillemotright
Encoding: 187 187 126
Width: 654
Flags: W
LayerCount: 2
Fore
SplineSet
360 257 m 5
 160 57 l 5
 0 57 l 5
 213.25 284 l 5
 0 511 l 5
 160 511 l 5
 360 311 l 5
 360 257 l 5
640 257 m 5
 440 57 l 5
 280 57 l 5
 493.25 284 l 5
 280 511 l 5
 440 511 l 5
 640 311 l 5
 640 257 l 5
EndSplineSet
EndChar

StartChar: logicalnot
Encoding: 172 172 128
Width: 450
Flags: W
HStem: 314 119<14.6504 316.35>
VStem: 316.35 119<192.301 314>
LayerCount: 2
Fore
SplineSet
14.650390625 314 m 1
 14.650390625 433 l 1
 435.349609375 433 l 1
 435.349609375 192.30078125 l 1
 316.349609375 192.30078125 l 1
 316.349609375 314 l 1
 14.650390625 314 l 1
EndSplineSet
EndChar

StartChar: mu
Encoding: 181 181 129
Width: 531
Flags: W
HStem: -10 115<131.544 283.348> 0 21G<355.639 491.639> 535 20G<38.8792 173.879 355.639 491.639>
VStem: 38.8792 135<-180 555> 355.639 136<0 100 196.738 555>
LayerCount: 2
Fore
SplineSet
173.87890625 555 m 1x38
 173.87890625 -180 l 1
 38.8791593695 -180 l 1
 38.8791593695 555 l 1
 173.87890625 555 l 1x38
38.8791593695 145.593803787 m 2
 38.8791593695 555 l 1
 173.87915937 555 l 1
 173.87915937 190.944206009 l 2
 173.87915937 129.141630901 197.499870632 105 245.916473226 105 c 0
 340.297806898 105 384.639229422 196.738197425 384.639229422 196.738197425 c 1
 384.639229422 100 l 1
 384.639229422 100 324.649157377 -10 183.793650485 -10 c 0xb8
 79.2944094298 -10 38.8791593695 60.017211704 38.8791593695 145.593803787 c 2
355.639229422 0 m 1x78
 355.639229422 555 l 1
 491.639229422 555 l 1
 491.639229422 0 l 1
 355.639229422 0 l 1x78
EndSplineSet
EndChar

StartChar: acute
Encoding: 180 180 130
Width: 230
Flags: W
HStem: 565 166
VStem: 1 228
LayerCount: 2
Fore
SplineSet
89 565 m 5
 1 565 l 5
 91 731 l 5
 229 731 l 5
 89 565 l 5
EndSplineSet
EndChar

StartChar: plusminus
Encoding: 177 177 131
Width: 450
Flags: W
HStem: 124 119<14.6504 165.5 284.5 435.35> 203.15 39.8496<165.5 284.5> 354 119<14.6504 435.35>
VStem: 165.5 119<203.15 623.85>
LayerCount: 2
Fore
SplineSet
14.650390625 124 m 5xb0
 14.650390625 243 l 5
 435.349609375 243 l 5
 435.349609375 124 l 5
 14.650390625 124 l 5xb0
284.5 203.150390625 m 5x70
 165.5 203.150390625 l 5
 165.5 623.849609375 l 5
 284.5 623.849609375 l 5
 284.5 203.150390625 l 5x70
14.650390625 354 m 5
 14.650390625 473 l 5
 435.349609375 473 l 5
 435.349609375 354 l 5
 14.650390625 354 l 5
EndSplineSet
EndChar

StartChar: degree
Encoding: 176 176 133
Width: 408
Flags: W
HStem: 365.902 100.462<156.198 253.008> 638.53 100.462<156.198 253.008>
VStem: 30 110.552<481.039 623.855> 269.036 110.552<481.039 623.855>
LayerCount: 2
Fore
SplineSet
379.587890625 538.017578125 m 6
 379.587890625 438.371643275 324.282846418 365.90234375 204.383789062 365.90234375 c 4
 84.5293153356 365.90234375 30 438.371643275 30 538.017578125 c 6
 30 566.876953125 l 6
 30 666.522887975 84.5293153356 738.9921875 204.383789062 738.9921875 c 4
 324.282846418 738.9921875 379.587890625 666.522887975 379.587890625 566.876953125 c 6
 379.587890625 538.017578125 l 6
140.551757812 540.73828125 m 6
 140.551757812 497.678092163 156.947718672 466.364257812 204.793945312 466.364257812 c 4
 252.639015353 466.364257812 269.036132812 497.678092163 269.036132812 540.73828125 c 6
 269.036132812 564.15625 l 6
 269.036132812 607.216439087 252.639015353 638.530273438 204.793945312 638.530273438 c 4
 156.947718672 638.530273438 140.551757812 607.216439087 140.551757812 564.15625 c 6
 140.551757812 540.73828125 l 6
EndSplineSet
EndChar

StartChar: copyright
Encoding: 169 169 134
Width: 768
Flags: W
HStem: -11 97<268.103 497.5> 139 86.2002<344.526 439.834> 502.8 86.2002<343.583 438.542> 642 97<268.103 497.5>
VStem: 30 105<229.5 502.455> 224.46 107<238.723 489.277> 452.84 97<236.097 305.8 421.6 489.705> 633.2 105<233.541 498.479>
LayerCount: 2
Back
SplineSet
738.200195312 367 m 4
 738.200195312 155.091481606 622.050785313 -11 382.859375 -11 c 4
 142.507644735 -11 30 156.522727272 30 367 c 4
 30 574.136363637 142.507644735 739 382.859375 739 c 4
 622.050785313 739 738.200195312 575.544891118 738.200195312 367 c 4
175 368 m 4
 175 224.241610739 227.487182618 116 383 116 c 4
 537.502070429 116 593.200195312 224.24229991 593.200195312 368 c 4
 593.200195312 507.193963579 537.502070429 612 383 612 c 4
 227.487182618 612 175 507.194630872 175 368 c 4
EndSplineSet
Fore
SplineSet
549.83984375 305.799804688 m 1
 549.83984375 192.400390625 493.439453125 139 390.73046875 139 c 0
 273.059570312 139 224.459960938 206.541015625 224.459960938 291.400390625 c 2
 224.459960938 436.599609375 l 2
 224.459960938 521.458984375 273.059570312 589 388.295898438 589 c 0
 493.439453125 589 549.83984375 530.799804688 549.83984375 421.599609375 c 1
 452.83984375 421.599609375 l 1
 452.83984375 476.774424331 433.744810473 502.799804688 391.4375 502.799804688 c 0
 343.794974572 502.799804688 331.459960938 471.272804926 331.459960938 429.400390625 c 2
 331.459960938 298.599609375 l 2
 331.459960938 256.727195074 343.891767148 225.200195312 393.866210938 225.200195312 c 0
 433.89796351 225.200195312 452.83984375 247.04029685 452.83984375 305.799804688 c 1
 549.83984375 305.799804688 l 1
738.200195312 367 m 4
 738.200195312 155.091481606 622.050785313 -11 382.859375 -11 c 4
 142.507644735 -11 30 156.522727272 30 367 c 4
 30 574.136363637 142.507644735 739 382.859375 739 c 4
 622.050785313 739 738.200195312 575.544891118 738.200195312 367 c 4
135 368 m 4
 135 207.127516779 197.580871583 86 383 86 c 4
 566.903007988 86 633.200195312 207.128287995 633.200195312 368 c 4
 633.200195312 524.307975495 566.903007988 642 383 642 c 4
 197.580871583 642 135 524.308724831 135 368 c 4
EndSplineSet
EndChar

StartChar: registered
Encoding: 174 174 135
Width: 768
Flags: W
HStem: -11 97<268.103 497.5> 302.2 87.2002<288.96 412.099> 302.2 29.3994<341.62 446.64> 496.4 88.3994<335.96 422.963> 642 97<268.103 497.5>
VStem: 30 105<229.5 502.455> 228.36 107.6<146.2 302.2 389.4 496.4> 288.96 47<302.2 389.4> 430.6 107<397.338 488.773> 633.2 105<233.541 498.479>
LayerCount: 2
Fore
SplineSet
433.240234375 146.200195312 m 1xbcc0
 341.620117188 331.599609375 l 1
 446.639648438 331.599609375 l 1
 553.440429688 146.200195312 l 1
 433.240234375 146.200195312 l 1xbcc0
228.360351562 584.799804688 m 1xdec0
 372 584.799804688 l 6
 492.15833752 584.799804687 537.599609375 540.590587538 537.599609375 455.200195312 c 2
 537.599609375 430.599609375 l 2
 537.599609375 346 487.891601562 302.200195312 386.580078125 302.200195312 c 2
 288.959960938 302.200195312 l 1
 288.959960938 389.400390625 l 1xddc0
 355.360351562 389.400390625 l 2
 412.098632812 389.400390625 430.599609375 400.399739583 430.599609375 439.400390625 c 2
 430.599609375 447 l 2
 430.599609375 485.921101501 412.725585938 496.400390625 356.01953125 496.400390625 c 2
 335.959960938 496.400390625 l 1
 335.959960938 146.200195312 l 1
 228.360351562 146.200195312 l 1
 228.360351562 584.799804688 l 1xdec0
738.200195312 367 m 0
 738.200195312 155.091481606 622.050785313 -11 382.859375 -11 c 0
 142.507644735 -11 30 156.522727272 30 367 c 0
 30 574.136363637 142.507644735 739 382.859375 739 c 0
 622.050785313 739 738.200195312 575.544891118 738.200195312 367 c 0
135 368 m 0
 135 207.127516779 197.580871583 86 383 86 c 0
 566.903007988 86 633.200195312 207.128287995 633.200195312 368 c 0
 633.200195312 524.307975495 566.903007988 642 383 642 c 0
 197.580871583 642 135 524.308724831 135 368 c 0
EndSplineSet
EndChar

StartChar: macron
Encoding: 175 175 136
Width: 360
Flags: W
HStem: 643 88.0078<35 325>
VStem: 35 290<643 731.008>
LayerCount: 2
Fore
SplineSet
35 643 m 1
 35 731.0078125 l 1
 325 731.0078125 l 5
 325 643 l 5
 35 643 l 1
EndSplineSet
EndChar

StartChar: cedilla
Encoding: 184 184 137
Width: 289
Flags: W
HStem: -248.1 69.71<53.0873 171.551> -109.68 61.0098<139.15 170.676>
VStem: 173.74 85.4102<-175.553 -113.548>
LayerCount: 2
Fore
SplineSet
94.1796875 19.080078125 m 5
 165.1796875 19.080078125 l 5
 139.150390625 -48.669921875 l 5
 148 -48.669921875 l 6
 220.9140625 -48.669921875 259.150390625 -81.5048828125 259.150390625 -144.120117188 c 4
 259.150390625 -217.102539062 215.900390625 -248.099609375 130.450195312 -248.099609375 c 4
 54.125 -248.099609375 18.1298828125 -209.490234375 18.1298828125 -209.490234375 c 5
 57.91015625 -150.309570312 l 5
 57.91015625 -150.309570312 76.69140625 -178.389648438 129.280273438 -178.389648438 c 4
 160.784179688 -178.389648438 173.740234375 -169.376953125 173.740234375 -143.780273438 c 4
 173.740234375 -119.043945312 160.245117188 -109.6796875 124.599609375 -109.6796875 c 6
 58.740234375 -109.6796875 l 5
 58.740234375 -62.599609375 l 5
 94.1796875 19.080078125 l 5
EndSplineSet
EndChar

StartChar: paragraph
Encoding: 182 182 140
Width: 770
Flags: W
HStem: 612.992 118.016<421.4 507.4 653.4 735.4>
VStem: 35 386.4<330.176 611.497> 275.4 146<-178.992 230.008> 507.4 146<-179 612.992>
LayerCount: 2
Fore
SplineSet
507.400390625 612.9921875 m 1xd0
 421.400390625 612.9921875 l 1
 421.400390625 -178.9921875 l 1
 275.400390625 -178.9921875 l 1
 275.400390625 230.0078125 l 1xb0
 258.900390625 230.0078125 l 2
 113.55434918 230.0078125 35 300.396484375 35 429.0078125 c 2
 35 530.0078125 l 2
 35 659.912109375 114.039358499 731.0078125 254.5 731.0078125 c 2
 735.400390625 731.0078125 l 5
 735.400390625 613 l 5
 653.400390625 613 l 1
 653.400390625 -179 l 1
 507.400390625 -179 l 1
 507.400390625 612.9921875 l 1xd0
EndSplineSet
EndChar

StartChar: AE
Encoding: 198 198 141
Width: 932
Flags: W
HStem: 0 120<585 897.5> 177 119<193 549.7> 314 119<480 837.5> 611 120<585 897.5>
VStem: 440 39.5<641 731> 480 105<314 433> 559.7 25.2998<177 260.3>
LayerCount: 2
Fore
SplineSet
480 314 m 1xfc
 480 433 l 1
 837.5 433 l 1
 837.5 314 l 1
 480 314 l 1xfc
585 611 m 1xfa
 585 120 l 1
 897.5 120 l 1
 897.5 0 l 1
 440 0 l 1
 440 731 l 1
 897.5 731 l 1
 897.5 611 l 1
 585 611 l 1xfa
153 177 m 5
 193 296 l 5
 549.700195312 296 l 5
 559.700195312 177 l 5
 153 177 l 5
389.200195312 731 m 1
 479.5 731 l 1
 479.5 641 l 1
 151 0 l 1
 1 0 l 1
 389.200195312 731 l 1
EndSplineSet
EndChar

StartChar: ae
Encoding: 230 230 142
Width: 817
Flags: W
HStem: -11 115<505.231 640.678> -10 106<176.612 297.749> 241.579 99<432.573 659.471> 300 36.8525<342.876 350.876> 454 111<503.999 631.197> 456 109<196.47 317.254>
VStem: 25 140<109.195 211.776> 340.594 105.282<300.017 432.525> 340.594 10.2822<300.005 321> 432.573 38.9756<241.579 340.579> 659.471 133<122.127 186.218 340.579 425.566>
LayerCount: 2
Fore
SplineSet
398.875976562 92 m 5x52a0
 398.875976562 92 333.610375277 -10 191.901367188 -10 c 0
 85.1044921875 -10 25 57.896484375 25 145.96484375 c 0
 25 307 195.4140625 336 350.875976562 336.852539062 c 1
 350.875976562 244.092773438 l 1
 200.4140625 244.092773438 165 216 165 153.536132812 c 0
 165 121.6875 182.849609375 96 238.545898438 96 c 0
 320.12890625 96 358.875976562 176.764648438 358.875976562 176.764648438 c 1
 398.875976562 92 l 5x52a0
342.875976562 300 m 1
 342.875976562 300 340.59375 307 340.59375 321 c 2
 340.59375 346 l 2
 340.59375 420 324.640625 456 254.348632812 456 c 0
 177.317382812 456 172.110351562 385.235351562 172.110351562 385.235351562 c 1
 41 406.098632812 l 1
 41 406.098632812 57.0087890625 565 255.788085938 565 c 0
 383.568359375 565 445.875976562 499.016601562 445.875976562 363.700195312 c 2
 445.875976562 357.66796875 l 2x1720
 445.875976562 323.353515625 451.427734375 300 451.427734375 300 c 1
 342.875976562 300 l 1
EndSplineSet
Refer: 34 101 N 1 0 0 1 304.414 0 2
EndChar

StartChar: Eth
Encoding: 208 208 143
Width: 674
Flags: W
HStem: 0 122<256 452.31> 292 118.008<35 396> 607 124<256 452.309>
VStem: 110 146<122 607> 499.1 145<163.636 565.675>
LayerCount: 2
Fore
SplineSet
35 292 m 1
 35 410.0078125 l 1
 396 410.0078125 l 5
 396 292 l 5
 35 292 l 1
EndSplineSet
Refer: 15 68 N 1 0 0 1 70 0 2
EndChar

StartChar: eth
Encoding: 240 240 144
Width: 557
Flags: W
HStem: -11 115<200.817 325.257> 400 115<202.384 326.485> 658 113<170.763 327.037>
VStem: 36.1846 130.95<142.066 361.934> 359.534 130.95<142.34 364.753 479.231 562.204>
LayerCount: 2
Fore
SplineSet
214 530 m 5
 214 607 l 5
 536 677 l 5
 536 600 l 5
 214 530 l 5
490.485351562 243 m 6
 490.485846201 84.4620418327 421.506835938 -11 263.190429688 -11 c 4
 104.205078125 -11 36.1845703125 92.57421875 36.1845703125 223 c 6
 36.1845703125 281 l 6
 36.1845703125 411.42578125 98.2122365304 515 243.190429688 515 c 4
 322 515 359.534179688 479.231445312 359.534179688 479.231445312 c 5
 359.534179688 547 l 6
 359.534179688 614.565217391 333.833541511 658 247.614257812 658 c 6
 170.762695312 658 l 5
 170.762695312 771 l 5
 265.999023438 771 l 6
 425.738432323 771 490.483959536 689.161290322 490.484375 556 c 6
 490.485351562 243 l 6
167.134765625 225 m 6
 167.134765625 157.659179688 189.181640625 104 262.81640625 104 c 4
 336.450195312 104 359.536371397 157.807177998 359.53515625 225 c 6
 359.534179688 279 l 6
 359.532961864 346.340848308 336.450176087 400 262.81640625 400 c 4
 189.181640625 400 167.134765625 346.340820312 167.134765625 279 c 6
 167.134765625 225 l 6
EndSplineSet
EndChar

StartChar: G.ss10
Encoding: 65557 -1 145
Width: 627
Flags: W
HStem: -10 126<224.955 388.599> 259 118<310.3 438.082> 613 126<224.036 384.823>
VStem: 30 145<168.041 560.959> 431.3 145<481 565.709> 438.082 149.918<170.448 259>
LayerCount: 2
Fore
SplineSet
310.3 259 m 5xf4
 310.3 377 l 5
 588 377 l 5
 588 290 l 6xf4
 588 101.144955702 503 -10 301 -10 c 4
 113 -10 30 102.568181818 30 244 c 6
 30 485 l 6
 30 626.431818182 115 739 308.542578125 739 c 4
 482.3 739 576.3 645 576.3 481 c 5
 431.3 481 l 5xf8
 431.3 566.411764706 391.7 613 305.273730469 613 c 4
 204.7 613 175 552.333333333 175 473 c 6
 175 256 l 6
 175 176.666666667 204.7 116 303.991113281 116 c 4
 385.565794944 116 438.082271055 152 438.082271055 259 c 5
 310.3 259 l 5xf4
EndSplineSet
EndChar

StartChar: R.ss11
Encoding: 65558 -1 146
Width: 589
Flags: W
HStem: 0 21G<40 186 412.209 564.014> 281 131<155.6 356.777> 320 92<141 155.6 268 356.777> 320 51<155.6 444.505> 607 122<186 361.528>
VStem: 40 146<0 281 412 607> 141 45<371 412> 155.6 30.4004<281 371> 395.4 145<439.053 572.908>
LayerCount: 2
Fore
SplineSet
40 731 m 1xcc80
 291.900390625 729 l 2
 452.176717472 728.093457944 540.400390625 649.822265625 540.400390625 522 c 2
 540.400390625 503 l 2
 540.400390625 388.35546875 462.514648438 320 299.700195312 320 c 2
 141 320 l 1
 141 412 l 17xaa80
 268 412 l 2
 356.77734375 412 395.400390625 435.599609375 395.400390625 498 c 2
 395.400390625 512 l 2
 395.400390625 574.2421875 357.766601562 607 269.099609375 607 c 2
 186 607 l 1
 186 0 l 1
 40 0 l 1
 40 731 l 1xcc80
564.013671875 0 m 1
 415.461914062 0 l 1
 391.330078125 148.38671875 l 2
 372.657593783 263.203871061 358.771484375 281 291.599609375 281 c 2
 155.599609375 281 l 1xc980
 155.599609375 371 l 1
 304 371 l 2x9980
 444.504882812 371 507.10814467 343.859462356 534.375976562 179.08984375 c 2
 564.013671875 0 l 1
EndSplineSet
EndChar

StartChar: a.ss12
Encoding: 65559 -1 147
Width: 543
Flags: W
HStem: -10 106<171.198 283.528> 0 107<471.893 525.014> 244.093 92.7598<200.993 345.462> 456 109<191.056 310.644>
VStem: 19.5858 140<109.195 211.776> 335.462 18<68 124.339>
LayerCount: 2
Fore
SplineSet
353.461914062 68 m 1xbc
 353.461914062 68 300.809087787 -10 186.487489735 -10 c 0
 79.6902963621 -10 19.5857562117 57.8966903805 19.5857562117 145.964419009 c 0
 19.5857562117 307 190 336 345.461914062 336.852539062 c 1
 345.461914062 244.092773438 l 1
 195 244.092773438 159.5859375 216 159.5859375 153.536132812 c 0
 159.5859375 121.6875 177.435546875 96 233.131835938 96 c 0
 323.71484375 96 353.461914062 176.764648438 353.461914062 176.764648438 c 1
 353.461914062 68 l 1xbc
460 0 m 2x7c
 369 0 335.461914063 41 335.461914062 124.338867188 c 2
 335.461914062 351.661132812 l 2
 335.461914062 417.355975116 318.423559076 456 248.934570312 456 c 0
 171.903238366 456 166.696200129 385.234972678 166.696200129 385.234972678 c 1
 35.5859375 406.098632812 l 1
 35.5859375 406.098632812 51.5945750152 565 250.374023438 565 c 0
 398.320505434 565 470.461914062 499.017035532 470.461914062 363.700195312 c 2
 470.461914062 140.66796875 l 2
 470.461914063 118.701086013 482.11786014 107 504 107 c 2
 525.013671875 107 l 1
 525.013671875 0 l 1
 460 0 l 2x7c
EndSplineSet
EndChar

StartChar: g.ss13
Encoding: 65560 -1 148
Width: 533
Flags: W
HStem: -188.994 98<190.618 335.441> -20.1221 20G<23.0537 155.923> 38 105<196.454 306.419> 456 109<194.639 303.011> 535 20G<364.095 493.227>
VStem: 29.1592 135<176.154 423.37> 364.095 17.3538<380.084 474> 364.096 129.131<-63.6832 119 213.185 380.084 474 555>
LayerCount: 2
Fore
SplineSet
364.095703125 7 m 10xed
 364.095446585 555 l 1xee
 493.226795096 555 l 1
 493.2265625 3 l 18
 493.226506938 -128.860882437 396.829637321 -188.994140625 262 -188.994140625 c 0
 124.208975149 -188.994140625 36.4727240018 -122.124572796 23.0537109375 -10.35546875 c 1
 150.922851562 -0.1220703125 l 1
 160.923209286 -58.5263671868 200.924640184 -90.994140625 264.532226562 -90.994140625 c 0
 326.297903303 -90.994140625 364.095703125 -65.0264664445 364.095703125 7 c 10xed
381.449211909 474 m 1
 381.449211909 380.083798883 l 1
 381.449211909 380.083798883 358.749590756 456 263.288085938 456 c 0
 178.058689865 456 164.15979551 399.161225557 164.159369527 323.720670391 c 2
 164.159179688 279.100585938 l 6
 164.159179688 203.832837654 178.058541555 143 256.932617188 143 c 4
 338.435582638 143 373.673828125 213.184570312 373.673828125 213.184570312 c 5
 373.673828125 119 l 5
 373.673828125 119 333.693730186 38 209.389648438 38 c 4
 88.1637422246 38 29.1591796875 122.648542668 29.1591796875 227.729492188 c 6
 29.1593695271 376.243243243 l 2
 29.1595132498 480.351351351 88.1476372766 565 205.654780971 565 c 0xf6
 333.606132697 565 381.449211909 474 381.449211909 474 c 1
EndSplineSet
EndChar

StartChar: one.ss14
Encoding: 65561 -1 149
Width: 326
Flags: W
HStem: 0 21G<140 286> 520 118<20 85.9043> 711 20G<152.394 286>
VStem: 140 146<0 567>
LayerCount: 2
Fore
SplineSet
140 0 m 1
 140 567 l 5
 140 567 106 532 20 520 c 5
 20 638 l 1
 94.5467080728 653.693038951 134.787549971 681.54901482 170 731 c 1
 286 731 l 1
 286 0 l 1
 140 0 l 1
EndSplineSet
EndChar

StartChar: two.ss15
Encoding: 65562 -1 150
Width: 538
Flags: W
HStem: 0 120<186.1 503> 612 127<202.084 327.43>
VStem: 33.5996 135.9<508 578.763> 359.4 140.6<448.791 579.803>
LayerCount: 2
Fore
SplineSet
266.067382812 739 m 0
 399 739 500 662 500 523.418945312 c 0
 500 389.542494702 397.46484375 320.147460938 309.092773438 259.16796875 c 0
 249.382297499 217.965873018 194.394795492 187.770657978 186.099609375 120 c 1
 503 120 l 1
 503 0 l 1
 30 0 l 1
 30 62 l 2
 30 205.447740089 122.997070312 279.98046875 224.15234375 348.943359375 c 0
 297.946333356 399.252618211 359.400390625 445.260742188 359.400390625 517 c 4
 359.400390625 575 321.600585938 612 267.991210938 612 c 4
 213.599609375 612 169.5 580.93359375 169.5 508 c 5
 33.599609375 508 l 1
 33.599609375 659 137.599609375 739 266.067382812 739 c 0
EndSplineSet
EndChar

StartChar: four.ss16
Encoding: 65563 -1 151
Width: 614
Flags: W
HStem: 0 21G<336 482> 168.992 118.008<160 579> 539 20G<386.097 482> 711 20G<224 362.997>
VStem: 224 138.997<599.048 731> 336 146<0 460.842> 391 91<489.001 559>
LayerCount: 2
Fore
SplineSet
482 0 m 1xf4
 336 0 l 1
 336 419 l 1xf4
 366.762711864 476.361111111 381.193657309 512.708360461 391 559 c 1
 482 559 l 1xf2
 482 0 l 1xf4
579 287 m 1
 579 168.9921875 l 1
 20 168.9921875 l 1
 20 287 l 1
 20 287 224 510 224 731 c 1
 362.997070312 731 l 5xf8
 362.997070312 486 160 287 160 287 c 1
 579 287 l 1
EndSplineSet
EndChar

StartChar: seven.ss17
Encoding: 65564 -1 152
Width: 531
Flags: W
HStem: 0 21G<140 286> 611 120<156 350>
VStem: 35 121<500 611> 140 146<0 160.732>
LayerCount: 2
Fore
SplineSet
140 0 m 1xd0
 140 281 350 611 350 611 c 5
 156 611 l 1
 156 500 l 1
 35 500 l 1
 35 731 l 1xe0
 496 731 l 5
 496 621 496 621 496 621 c 5
 496 621 286 333 286 0 c 1
 140 0 l 1xd0
EndSplineSet
EndChar

StartChar: multiply
Encoding: 215 215 153
Width: 450
Flags: W
HStem: 544.312 20G<98.333 138.333 311.667 351.667>
LayerCount: 2
Fore
SplineSet
415.8125 266.833007812 m 1
 331.666992188 182.6875 l 1
 34.1875 480.166992188 l 1
 118.333007812 564.3125 l 1
 415.8125 266.833007812 l 1
118.333007812 182.6875 m 1
 34.1875 266.833007812 l 1
 331.666992188 564.3125 l 1
 415.8125 480.166992188 l 1
 118.333007812 182.6875 l 1
EndSplineSet
EndChar

StartChar: divide
Encoding: 247 247 154
Width: 450
Flags: W
HStem: 126 136<147 303> 314 119<14.6504 435.35> 484 136<147 303>
VStem: 147 156<126 262 484 620>
LayerCount: 2
Fore
SplineSet
14.650390625 314 m 1
 14.650390625 433 l 1
 435.349609375 433 l 1
 435.349609375 314 l 1
 14.650390625 314 l 1
147 126 m 5
 147 262 l 5
 303 262 l 5
 303 126 l 5
 147 126 l 5
147 484 m 1
 147 620 l 1
 303 620 l 1
 303 484 l 1
 147 484 l 1
EndSplineSet
EndChar

StartChar: Thorn
Encoding: 222 222 155
Width: 571
Flags: W
HStem: 0 21G<40 186> 151 122<111 372.383> 488 124<110 375.228> 711 20G<40 186>
VStem: 40 146<0 151 273 488 612 731> 110 76<151 273 488 612> 401.4 145<301.211 460.351>
LayerCount: 2
Fore
SplineSet
40 0 m 1xfa
 40 731 l 1
 186 731 l 1
 186 0 l 1
 40 0 l 1xfa
110 612 m 1xf6
 316.900390625 612 l 2
 464.504986914 612 546.400390625 537.366812227 546.400390625 401 c 6
 546.400390625 360 l 6
 546.400390625 224.925764192 464.337774285 151 312.5 151 c 2
 111 151 l 1
 111 273 l 1
 289.400390625 273 l 2
 369.900390625 273 401.400390625 297.782608696 401.400390625 368 c 6
 401.400390625 394 l 6
 401.400390625 464.087719298 370.779924433 488 290.5 488 c 2
 110 488 l 1
 110 612 l 1xf6
EndSplineSet
EndChar

StartChar: thorn
Encoding: 254 254 156
Width: 534
Flags: W
HStem: -11 115<224.704 339.513> 446 119<229.761 338.633> 751 20G<38.8789 168.011>
VStem: 38.8792 129.131<-180 70 167.05 377.218 474 771> 150.657 17.354<377.218 474> 367.947 135<135.789 414.244>
LayerCount: 2
Fore
SplineSet
168.010742188 771 m 5xec
 168.010507881 -180 l 1
 38.8791593695 -180 l 1xf4
 38.87890625 771 l 5
 168.010742188 771 l 5xec
150.656742557 474 m 1xec
 150.656742557 474 198.499821769 565 326.451519151 565 c 0
 443.958317189 565 502.946584939 480.351351351 502.946584939 376.243243243 c 2
 502.946584939 178.72972973 l 2
 502.946584939 73.6486486486 443.942135227 -11 322.71634332 -11 c 0
 198.412600992 -11 158.432574431 70 158.432574431 70 c 1
 158.432574431 167.05027933 l 1
 158.432574431 167.05027933 193.670753065 104 277.150962268 104 c 0
 354.047285464 104 367.946584939 157.497206704 367.946584939 227.234636872 c 2
 367.946584939 326.586592179 l 2
 367.946584939 396.324022346 354.047285464 446 271.035773585 446 c 0
 173.356392294 446 150.656742557 377.217877095 150.656742557 377.217877095 c 1
 150.656742557 474 l 1xec
EndSplineSet
EndChar

StartChar: circumflex
Encoding: 710 710 157
Width: 320
Flags: W
HStem: 565 166
VStem: 1 318
LayerCount: 2
Fore
SplineSet
89 565 m 1
 1 565 l 1
 91 731 l 1
 229 731 l 1
 319 565 l 1
 231 565 l 1
 160 649.185714286 l 1
 89 565 l 1
EndSplineSet
EndChar

StartChar: caron
Encoding: 711 711 158
Width: 320
Flags: W
HStem: 565 166
VStem: 1 318
LayerCount: 2
Fore
SplineSet
231 731 m 1
 319 731 l 1
 229 565 l 1
 91 565 l 1
 1 731 l 1
 89 731 l 1
 160 646.814453125 l 1
 231 731 l 1
EndSplineSet
EndChar

StartChar: ordfeminine
Encoding: 170 170 159
Width: 359
Flags: W
HStem: 353 79<120.267 208.364> 518 70<131.298 243> 655 82<130.469 225.151>
VStem: 13 105<436.624 501.576> 235 8<413 479 518 588> 249 88<413 479>
LayerCount: 2
Fore
SplineSet
252 360 m 5
 252 360 235 380 235 428 c 6
 235 588 l 6
 235 630 223 655 177 655 c 4
 126 655 123 615 123 615 c 5
 25 627 l 5
 25 627 36 737 179 737 c 4
 285 737 337 693 337 603 c 6
 337 440 l 6
 337 394 351 362 351 362 c 5
 252 360 l 5
249 413 m 5
 249 413 212 353 131 353 c 4
 56 353 13 399 13 459 c 4
 13 568 133 587 243 588 c 5
 243 518 l 5
 142 518 118 501 118 465 c 4
 118 447 130 432 168 432 c 4
 229 432 249 479 249 479 c 5
 249 413 l 5
EndSplineSet
EndChar

StartChar: ordmasculine
Encoding: 186 186 160
Width: 372
Flags: W
HStem: 347 87<137.115 234.885> 655 87<137.115 234.885>
VStem: 24 98<448.074 640.926> 250 98<448.074 640.926>
LayerCount: 2
Fore
SplineSet
122 511 m 6
 122 468 137 434 186 434 c 4
 235 434 250 468 250 511 c 6
 250 578 l 6
 250 621 235 655 186 655 c 4
 137 655 122 621 122 578 c 6
 122 511 l 6
348 507 m 6
 348 417 299 347 186 347 c 4
 73 347 24 418 24 507 c 6
 24 582 l 6
 24 671 73 742 186 742 c 4
 299 742 348 672 348 582 c 6
 348 507 l 6
EndSplineSet
EndChar

StartChar: Oslash
Encoding: 216 216 161
Width: 608
Flags: W
HStem: -11 127<222.939 383.24> 612 127<222.939 383.24>
VStem: 30 145<167.041 560.959> 433.2 145<168.114 559.886>
LayerCount: 2
Fore
SplineSet
104 -88.994140625 m 5
 413 799.001953125 l 5
 516 799.001953125 l 5
 207 -88.994140625 l 5
 104 -88.994140625 l 5
EndSplineSet
Refer: 1 79 N 1 0 0 1 0 0 2
EndChar

StartChar: oslash
Encoding: 248 248 162
Width: 527
Flags: W
HStem: -11 115<200.817 325.257> 450 115<200.817 325.257>
VStem: 36.1846 130.95<142.066 411.934> 359.535 130.95<141.682 412.318>
LayerCount: 2
Fore
SplineSet
101 -88.994140625 m 5
 318 633.001953125 l 1
 421 633.001953125 l 1
 204 -88.994140625 l 5
 101 -88.994140625 l 5
EndSplineSet
Refer: 28 111 N 1 0 0 1 0 0 2
EndChar

StartChar: kgreenlandic
Encoding: 312 312 163
Width: 529
Flags: W
HStem: 0 21G<40 176 352.51 525.569> 535 20G<40 176 330.801 505.158>
VStem: 40 136<0 172 302 555>
LayerCount: 2
Fore
SplineSet
40 0 m 5
 40 555 l 5
 176 555 l 5
 176 0 l 5
 40 0 l 5
365.192644483 0 m 1
 181.294220665 290 l 1
 258.274956217 399 l 1
 525.569176883 0 l 1
 365.192644483 0 l 1
347.017064532 555 m 1
 505.157671232 555 l 1
 169.87915937 172 l 1
 141.87915937 302 l 1
 347.017064532 555 l 1
EndSplineSet
EndChar

StartChar: OE
Encoding: 338 338 164
Width: 930
Flags: W
HStem: -11 127<222.744 383.359> 0 120<603 915.5> 314 119<498 855.5> 611 120<603 915.5> 612 127<222.744 383.359>
VStem: 30 145<167.041 560.959> 433.2 105<168.114 559.886> 498 105<314 433>
LayerCount: 2
Fore
SplineSet
175 255 m 2xae
 175 175.705078125 207.299804688 116 303 116 c 0
 398.700195312 116 433.200195312 175.705078125 433.200195312 255 c 2
 433.200195312 473 l 2
 433.200195312 552.294921875 398.700195312 612 303 612 c 0
 207.299804688 612 175 552.294921875 175 473 c 2
 175 255 l 2xae
538.200195312 243 m 2
 538.200195312 100.606445312 454.737547812 -11 282.859375 -11 c 4
 110.623088816 -11 30 101.568359375 30 243 c 2
 30 485 l 2
 30 626.431640625 110.623088816 739 282.859375 739 c 4
 454.737547812 739 538.200195312 627.393554688 538.200195312 485 c 2
 538.200195312 243 l 2
EndSplineSet
Refer: 3 69 N 1 0 0 1 418 0 2
EndChar

StartChar: Eng
Encoding: 330 330 166
Width: 632
Flags: W
HStem: -189.992 118<292.2 425.358> -10 21G<443.822 454.7> 0 21G<40 186> 711.008 19.9922G<40 218.194 446 592>
VStem: 40 146<0 484> 446 146<-54.2924 7.00781 247 731.008> 446 8.7002<-7.94189 247>
LayerCount: 2
Fore
SplineSet
292.200195312 -189.9921875 m 1x9c
 292.200195312 -71.9921875 l 1
 369.200195312 -71.9921875 l 2
 421.547851562 -71.9921875 446 -49.258789062 446 7.0078125 c 2
 446 731.0078125 l 1
 592 731.0078125 l 1
 592 -14.9921875 l 2
 592 -125.684039699 545.191256468 -189.9921875 391.200195312 -189.9921875 c 2
 292.200195312 -189.9921875 l 1x9c
454.700195312 -10 m 5xda
 186 484 l 1
 186 0 l 1
 40 0 l 1xba
 40 731 l 1
 208 731 l 1
 454.700195312 247 l 5
 454.700195312 -10 l 5xda
EndSplineSet
EndChar

StartChar: eng
Encoding: 331 331 167
Width: 531
Flags: W
HStem: -178.994 113<241.918 342.038> 0 21G<38.8792 174.879> 447 118<247.175 396.746> 535 20G<38.8792 174.879>
VStem: 38.8792 136<0 358.179 455 555> 156.879 18<358.179 455> 356.64 135<-49.9587 424.184>
LayerCount: 2
Fore
SplineSet
174.87915937 555 m 1xda
 174.87915937 0 l 1
 38.8791593695 0 l 1
 38.8791593695 555 l 1
 174.87915937 555 l 1xda
356.639648438 354.317382812 m 2
 356.639648438 419.002159827 327.691772553 447 276.034602467 447 c 0
 184.026616239 447 156.87915937 358.179265659 156.87915937 358.179265659 c 1
 156.87915937 455 l 1
 156.87915937 455 200.597806249 565 346.188237042 565 c 0xe6
 447.302885059 565 491.639229422 503.734939759 491.639648438 394.819335938 c 2
 491.639648438 -23.994140625 l 2
 491.639648438 -119.813476562 438.430664062 -178.994140625 307.154296875 -178.994140625 c 2
 241.91796875 -178.994140625 l 1
 241.91796875 -65.994140625 l 1
 288.76953125 -65.994140625 l 2
 340.284179688 -65.994140625 356.639648438 -38.8134765625 356.639648438 3.005859375 c 2
 356.639648438 354.317382812 l 2
EndSplineSet
EndChar

StartChar: longs
Encoding: 383 383 168
Width: 326
Flags: W
HStem: 0 21G<73.8704 209.87> 658 113<221.794 321.648>
VStem: 73.8704 136<0 646.143>
LayerCount: 2
Fore
SplineSet
321.647985989 771 m 5
 321.647985989 658 l 5
 274.796875 658 l 6
 223.282226562 658 209.870402802 631 209.870402802 589 c 6
 209.870402802 0 l 5
 73.8704028021 0 l 5
 73.8704028021 616 l 6
 73.8704028021 712 126.100585938 771 256.405273438 771 c 6
 321.647985989 771 l 5
EndSplineSet
EndChar

StartChar: florin
Encoding: 402 402 169
Width: 326
Flags: W
HStem: -182 113<-39.8516 60.2683> 447 108<11.6637 308.04> 658 113<221.794 321.648>
VStem: 73.8701 136<-57.1433 646.143>
LayerCount: 2
Fore
SplineSet
11.6637478109 447 m 1
 11.6637478109 555 l 1
 308.04028021 555 l 1
 308.04028021 447 l 1
 11.6637478109 447 l 1
73.8701171875 616 m 6
 73.8704028021 712 126.100585938 771 256.405273438 771 c 6
 321.647985989 771 l 5
 321.647985989 658 l 5
 274.796875 658 l 6
 223.282226562 658 209.870402802 631 209.870117188 589 c 6
 209.870117188 -27 l 6
 209.870117188 -123 156.661132812 -182 25.384765625 -182 c 6
 -39.8515625 -182 l 5
 -39.8515625 -69 l 5
 7 -69 l 6
 58.5146484375 -69 73.8701171875 -42 73.8701171875 0 c 6
 73.8701171875 616 l 6
EndSplineSet
EndChar

StartChar: uni018F
Encoding: 399 399 170
Width: 595
Flags: W
HStem: -11 127<213.482 373.816> 297 118.008<161.7 512.7> 614 125<207.759 374.156>
VStem: 22.7002 139<172.931 297 484 564.831> 420 92.7002<297 415.008>
LayerCount: 2
Fore
SplineSet
512.700195312 297 m 1
 161.700195312 297 l 1
 161.700195312 263 l 6
 161.700195312 174 201 116 292.990234375 116 c 0
 396.299804688 116 420 175.705078125 420 255 c 2
 420 473 l 2
 420 552.294921875 392.299804688 614 293.037109375 614 c 0
 205.299804688 614 164.700195312 577.282226562 164.700195312 484 c 1
 22.7001953125 484 l 1
 22.7001953125 656 116.700195312 739 291.939453125 739 c 0
 484 739 565 626.431640625 565 485 c 2
 565 243 l 2
 565 101.568359375 484 -11 287.881835938 -11 c 0
 116.700195312 -11 22.7001953125 98 22.7001953125 245 c 6
 22.7001953125 415.0078125 l 1
 512.700195312 415.0078125 l 1
 512.700195312 297 l 1
EndSplineSet
EndChar

StartChar: partialdiff
Encoding: 8706 8706 172
Width: 543
Flags: W
HStem: -11 115<194.214 319.236> 400 115<207.552 333.661> 658 113<199.506 361.541>
VStem: 35 130.776<135.074 353.392> 377.306 131.685<479.231 642.804>
LayerCount: 2
Fore
SplineSet
326.53515625 771 m 2
 486.380859375 771 508.990234375 667.998046875 508.990234375 589.416992188 c 0
 508.990234375 581.599609375 508.737304688 571.431640625 507.92578125 556 c 2
 491.47265625 243 l 2
 483.139648438 84.4619140625 409.142578125 -11 250.826171875 -11 c 0
 111.564453125 -11 35 61.0654296875 35 192.145507812 c 0
 35 202.772460938 35.5712890625 212.5390625 36.12109375 223 c 2
 39.169921875 281 l 2
 47.2021484375 433.796875 113.499023438 515 258.4765625 515 c 0
 337.286132812 515 372.940429688 479.231445312 372.940429688 479.231445312 c 1
 376.501953125 547 l 2
 377.116210938 558.680664062 377.305664062 567.359375 377.305664062 573.732421875 c 0
 377.305664062 639.391601562 358.16015625 658 288.481445312 658 c 2
 193.56640625 658 l 1
 199.505859375 771 l 1
 326.53515625 771 l 2
361.796875 293.15234375 m 4
 361.796875 352.249023438 340.518554688 400 271.057617188 400 c 4
 197.422851562 400 172.555664062 346.340820312 169.015625 279 c 6
 166.176757812 225 l 6
 165.9140625 220.018554688 165.776367188 215.112304688 165.776367188 210.296875 c 4
 165.776367188 139.392578125 195.649414062 104 255.497070312 104 c 4
 329.130859375 104 355.044921875 157.807617188 358.577148438 225 c 6
 361.415039062 279 l 6
 361.666015625 283.791015625 361.796875 288.513671875 361.796875 293.15234375 c 4
EndSplineSet
EndChar

StartChar: emptyset
Encoding: 8709 8709 173
Width: 768
Flags: W
HStem: -11 97<298.332 497.5> 642 97<268.103 478.713>
VStem: 30 105<229.5 502.455> 633.2 105<233.541 498.479>
LayerCount: 2
Fore
SplineSet
738.200195312 367 m 4
 738.200195312 155.091481606 622.050785313 -11 382.859375 -11 c 4
 142.507644735 -11 30 156.522727272 30 367 c 4
 30 574.136363637 142.507644735 739 382.859375 739 c 4
 622.050785313 739 738.200195312 575.544891118 738.200195312 367 c 4
135 368 m 4
 135 207.127516779 197.580871583 86 383 86 c 4
 566.903007988 86 633.200195312 207.128287995 633.200195312 368 c 4
 633.200195312 524.307975495 566.903007988 642 383 642 c 4
 197.580871583 642 135 524.308724831 135 368 c 4
113 -88.994140625 m 1
 552 799.001953125 l 1
 655 799.001953125 l 1
 216 -88.994140625 l 1
 113 -88.994140625 l 1
EndSplineSet
EndChar

StartChar: Delta
Encoding: 8710 8710 174
Width: 645
Flags: W
HStem: 0 128.008<167 478.7> 711 20G<226.081 419.619>
LayerCount: 2
Fore
SplineSet
233.200195312 731 m 1
 412.5 731 l 1
 630.700195312 118.0078125 l 1
 630.700195312 0 l 1
 15 0 l 1
 15 118.0078125 l 1
 233.200195312 731 l 1
478.700195312 128.0078125 m 5
 323.400390625 593 l 1
 167 128.0078125 l 1
 478.700195312 128.0078125 l 5
EndSplineSet
EndChar

StartChar: product
Encoding: 8719 8719 175
Width: 632
Flags: W
HStem: 612 119<186 446.7>
VStem: 40 146<-178.994 612> 446.7 146<-178.994 612>
LayerCount: 2
Fore
SplineSet
446.700168117 612 m 1
 186 612 l 1
 186 -178.994140625 l 5
 40 -178.994140625 l 5
 40 731 l 1
 592.7 731 l 1
 592.700195312 731 l 1
 592.7 730.99922526 l 1
 592.700195312 -178.994140625 l 5
 446.700195312 -178.994140625 l 5
 446.700168117 612 l 1
EndSplineSet
EndChar

StartChar: summation
Encoding: 8721 8721 176
Width: 562
Flags: W
HStem: -178.994 120<185 547.5> 611 120<185 547.5>
LayerCount: 2
Back
SplineSet
185 611 m 5
 352 399 l 5
 352 313 l 5
 185 120 l 5
 497.5 120 l 5
 497.5 0 l 5
 40 0 l 5
 40 133 l 5
 220 358 l 5
 40 604 l 5
 40 731 l 5
 497.5 731 l 5
 497.5 611 l 5
 185 611 l 5
EndSplineSet
Fore
SplineSet
185 611 m 1
 402 309 l 5
 402 223 l 5
 185 -58.994140625 l 1
 547.5 -58.994140625 l 1
 547.5 -178.994140625 l 1
 40 -178.994140625 l 1
 40 -45.994140625 l 1
 270 268 l 5
 40 604 l 1
 40 731 l 1
 547.5 731 l 1
 547.5 611 l 1
 185 611 l 1
EndSplineSet
EndChar

StartChar: integral
Encoding: 8747 8747 177
Width: 381
Flags: W
HStem: -182 113<-10 89.97> 658 113<291.796 391.5>
LayerCount: 2
Fore
SplineSet
143.721679688 616 m 2
 149.994140625 712.592773438 195.952148438 771 326.256835938 771 c 2
 391.5 771 l 1
 391.5 658 l 1
 344.6484375 658 l 2
 293.133789062 658 282.501953125 631.819335938 279.721679688 589 c 2
 239.721679688 -27 l 2
 233.44921875 -123.592773438 186.512695312 -182 55.236328125 -182 c 2
 -10 -182 l 1
 -10 -69 l 1
 36.8515625 -69 l 2
 88.3662109375 -69 100.94140625 -42.8193359375 103.721679688 0 c 2
 143.721679688 616 l 2
EndSplineSet
EndChar

StartChar: notequal
Encoding: 8800 8800 178
Width: 450
Flags: W
HStem: 214 119<14.6504 435.35> 414 119<14.6504 435.35>
LayerCount: 2
Fore
SplineSet
56.5 87 m 5
 267.5 666 l 5
 393.5 666 l 5
 182.5 87 l 5
 56.5 87 l 5
EndSplineSet
Refer: 75 61 N 1 0 0 1 0 0 2
EndChar

StartChar: angleleft
Encoding: 9001 9001 179
Width: 302
Flags: W
HStem: 751.002 20G<173.34 301>
VStem: 1 300
LayerCount: 2
Fore
SplineSet
142.13671875 300.836914062 m 5
 301 -178.994140625 l 1
 181 -178.994140625 l 1
 1 301.005859375 l 1
 181 771.001953125 l 1
 301 771.001953125 l 1
 142.13671875 300.836914062 l 5
EndSplineSet
EndChar

StartChar: angleright
Encoding: 9002 9002 180
Width: 302
Flags: W
HStem: 751.002 20G<1 128.66>
VStem: 1 300
LayerCount: 2
Fore
SplineSet
159.86328125 300.836914062 m 5
 1 771.001953125 l 1
 121 771.001953125 l 1
 301 301.005859375 l 1
 121 -178.994140625 l 1
 1 -178.994140625 l 1
 159.86328125 300.836914062 l 5
EndSplineSet
EndChar

StartChar: zero.superior
Encoding: 8304 8304 181
Width: 393
HStem: 286 97<145.604 248.903> 701 97<145.604 248.903>
VStem: 20 109<398.934 685.066> 264 109<398.934 685.066>
LayerCount: 2
Fore
SplineSet
129 472 m 2
 129 421 138 383 196 383 c 0
 254 383 264 421 264 472 c 2
 264 612 l 2
 264 663 254 701 196 701 c 0
 138 701 129 663 129 612 c 2
 129 472 l 2
373 459 m 2
 373 362 320 286 196 286 c 0
 71 286 20 362 20 459 c 2
 20 625 l 2
 20 722 71 798 196 798 c 0
 320 798 373 722 373 625 c 2
 373 459 l 2
EndSplineSet
EndChar

StartChar: one.superior
Encoding: 185 185 182
Width: 230
HStem: 663 61<13 71.5146>
VStem: 93 110<300 663>
LayerCount: 2
Fore
SplineSet
93 300 m 5
 93 663 l 5
 13 663 l 5
 13 724 l 5
 64 735 92 754 116 787 c 5
 203 787 l 5
 203 300 l 5
 93 300 l 5
EndSplineSet
EndChar

StartChar: two.superior
Encoding: 178 178 183
Width: 382
HStem: 300 90<135 359> 698 95<133.381 234.242>
VStem: 17 103<633 682.684> 247 104<575.366 685.243>
LayerCount: 2
Fore
SplineSet
183 793 m 0
 278 793 351 743 351 653 c 0
 351 575 315 527 236 467 c 2
 135 390 l 1
 359 390 l 1
 359 300 l 1
 13 300 l 25
 13 396 l 1
 169 519 l 2
 223 562 247 595 247 639 c 0
 247 675 222 698 186 698 c 0
 150 698 120 679 120 633 c 1
 17 633 l 1
 17 738 91 793 183 793 c 0
EndSplineSet
EndChar

StartChar: three.superior
Encoding: 179 179 184
Width: 398
HStem: 287 96<135.04 241.243> 504 88<135 218> 527 29<135 297> 702 96<139.835 242.404>
VStem: 16 103<398.526 446> 23 103<638 687.33> 253 106<606.634 690.67> 258 109<399.817 488.685>
LayerCount: 2
Fore
SplineSet
135 556 m 17xb9
 192 556 l 2xb9
 297 556 367 523 367 427 c 0
 367 332 284 287 187 287 c 0
 94 287 16 335 16 446 c 1
 119 446 l 1
 119 402 152 383 189 383 c 0
 229 383 258 408 258 444 c 0
 258 493 218 504 167 504 c 2
 135 504 l 1xd9
 135 556 l 17xb9
135 527 m 9
 135 592 l 1
 167 592 l 2
 218 592 253 606 253 649 c 0
 253 682 228 702 192 702 c 4
 156 702 126 683 126 638 c 5
 23 638 l 5
 23 742 98 798 190 798 c 4
 287 798 359 747 359 659 c 0xd6
 359 570 298 527 192 527 c 2
 135 527 l 9
EndSplineSet
EndChar

StartChar: four.superior
Encoding: 8308 8308 185
Width: 422
HStem: 410 89<109 399>
VStem: 224 110<300 669>
LayerCount: 2
Fore
SplineSet
218 787 m 5
 334 787 l 5
 334 300 l 5
 224 300 l 5
 224 669 l 5
 109 499 l 5
 399 499 l 5
 399 410 l 5
 13 410 l 5
 13 488 l 5
 218 787 l 5
EndSplineSet
EndChar

StartChar: five.superior
Encoding: 8309 8309 186
Width: 403
HStem: 295 95<134.38 247.635> 554 86<131.266 246.291> 697 90<131 344>
VStem: 16 103<408.261 453> 36 95<626 697> 269 104<409.602 532.401>
LayerCount: 2
Fore
SplineSet
191 295 m 0xec
 94 295 16 350 16 453 c 1
 119 453 l 1xf4
 119 409 153 390 194 390 c 0
 238 390 269 415 269 473 c 0
 269 524 240 554 182 554 c 0
 125 554 110 524 110 524 c 9
 36 524 l 1
 36 787 l 25
 344 787 l 1
 344 697 l 1
 131 697 l 1
 131 626 l 17
 131 626 154 640 209 640 c 0
 311 640 373 572 373 471 c 0
 373 349 294 295 191 295 c 0xec
EndSplineSet
EndChar

StartChar: six.superior
Encoding: 8310 8310 187
Width: 391
HStem: 287 90<144.824 253.37> 526 90<144.298 253.766> 706 92<148.842 249.533>
VStem: 20 109<393.337 511.429 579 687.725> 261 104<646 695.216> 267 108<393.038 511.035>
LayerCount: 2
Fore
SplineSet
375 439 m 2xf4
 375 353 316 287 197 287 c 0
 77 287 20 349 20 467 c 2
 20 623 l 2
 20 721 77 798 198 798 c 0
 304 798 365 741 365 646 c 1
 261 646 l 1xf8
 261 683 242 706 199 706 c 0
 145 706 129 667 129 614 c 2
 129 579 l 1
 129 579 153 616 219 616 c 0
 317 616 375 550 375 466 c 2
 375 439 l 2xf4
131 445 m 2
 131 406 149 377 199 377 c 0
 249 377 267 406 267 445 c 2
 267 460 l 2xf4
 267 498 249 526 199 526 c 4
 149 526 131 498 131 460 c 2
 131 445 l 2
EndSplineSet
EndChar

StartChar: seven.superior
Encoding: 8311 8311 188
Width: 340
HStem: 697 90<23 220>
VStem: 23 294<704 787>
LayerCount: 2
Fore
SplineSet
53 300 m 1
 220 697 l 1
 23 697 l 1
 23 787 l 1
 317 787 l 1
 317 704 l 1
 164 300 l 1
 53 300 l 1
EndSplineSet
EndChar

StartChar: eight.superior
Encoding: 8312 8312 189
Width: 390
HStem: 287 94<136.974 253.275> 503 93<143.25 246.875> 705 93<142.684 247.691>
VStem: 17 109<391.604 492.104> 27 107<606.891 695.789> 257 107<606.891 695.789> 265 109<395.013 491.913>
LayerCount: 2
Fore
SplineSet
195 705 m 0xec
 150 705 134 683 134 657 c 2
 134 644 l 2
 134 621 152 596 195 596 c 0
 237 596 257 621 257 644 c 2
 257 657 l 2
 257 683 240 705 195 705 c 0xec
195 381 m 0
 240 381 265 399 265 435 c 2
 265 449 l 2
 265 485 240 503 195 503 c 0
 149 503 126 485 126 449 c 2
 126 435 l 2xf2
 126 399 149 381 195 381 c 0
195 798 m 0
 315 798 364 743 364 669 c 2
 364 659 l 2xec
 364 574 291 555 291 555 c 1
 291 555 374 535 374 446 c 2
 374 420 l 2
 374 341 316 287 195 287 c 0
 74 287 17 341 17 420 c 2
 17 446 l 2xf2
 17 535 99 555 99 555 c 1
 99 555 27 574 27 659 c 2
 27 669 l 2xe8
 27 743 75 798 195 798 c 0
EndSplineSet
EndChar

StartChar: nine.superior
Encoding: 8313 8313 190
Width: 391
HStem: 287 91<144.704 246.158> 465 90<141.234 250.487> 707 91<142.107 249.961>
VStem: 20 108<569.428 690.518> 30 104<389.365 433> 266 109<397.275 502 569.487 691.532>
LayerCount: 2
Fore
SplineSet
20 644 m 2xf4
 20 731 79 798 198 798 c 0
 318 798 375 736 375 619 c 2
 375 462 l 2
 375 364 318 287 197 287 c 0
 91 287 30 342 30 433 c 1
 134 433 l 1xec
 134 399 153 378 196 378 c 0
 250 378 266 416 266 467 c 2
 266 502 l 1
 266 502 242 465 176 465 c 0
 78 465 20 531 20 614 c 2
 20 644 l 2xf4
265 638 m 2
 265 677 246 707 196 707 c 0
 146 707 128 677 128 638 c 2
 128 620 l 2xf4
 128 583 146 555 196 555 c 4
 246 555 265 583 265 620 c 2
 265 638 l 2
EndSplineSet
EndChar

StartChar: zero.inferior
Encoding: 8320 8320 191
Width: 393
HStem: -314 97<145.604 248.903> 101 97<145.604 248.903>
VStem: 20 109<-201.066 85.0659> 264 109<-201.066 85.0659>
LayerCount: 2
Fore
SplineSet
129 -128 m 2
 129 -179 138 -217 196 -217 c 0
 254 -217 264 -179 264 -128 c 2
 264 12 l 2
 264 63 254 101 196 101 c 0
 138 101 129 63 129 12 c 2
 129 -128 l 2
373 -141 m 2
 373 -238 320 -314 196 -314 c 0
 71 -314 20 -238 20 -141 c 2
 20 25 l 2
 20 122 71 198 196 198 c 0
 320 198 373 122 373 25 c 2
 373 -141 l 2
EndSplineSet
EndChar

StartChar: one.inferior
Encoding: 8321 8321 192
Width: 230
HStem: 63 61<13 71.5146>
VStem: 93 110<-300 63>
LayerCount: 2
Fore
SplineSet
93 -300 m 5
 93 63 l 5
 13 63 l 5
 13 124 l 5
 64 135 92 154 116 187 c 5
 203 187 l 5
 203 -300 l 5
 93 -300 l 5
EndSplineSet
EndChar

StartChar: two.inferior
Encoding: 8322 8322 193
Width: 382
HStem: -300 90<135 359> 98 95<133.381 234.242>
VStem: 17 103<33 82.6841> 247 104<-24.6344 85.2429>
LayerCount: 2
Fore
SplineSet
183 193 m 0
 278 193 351 143 351 53 c 0
 351 -25 315 -73 236 -133 c 2
 135 -210 l 1
 359 -210 l 1
 359 -300 l 1
 13 -300 l 25
 13 -204 l 1
 169 -81 l 2
 223 -38 247 -5 247 39 c 0
 247 75 222 98 186 98 c 0
 150 98 120 79 120 33 c 1
 17 33 l 1
 17 138 91 193 183 193 c 0
EndSplineSet
EndChar

StartChar: three.inferior
Encoding: 8323 8323 194
Width: 398
HStem: -313 96<135.04 241.243> -96 88<135 218> -73 29<135 297> 102 96<139.835 242.404>
VStem: 16 103<-201.474 -154> 23 103<38 87.3305> 253 106<6.63419 90.67> 258 109<-200.183 -111.315>
LayerCount: 2
Fore
SplineSet
135 -44 m 17xb9
 192 -44 l 2xb9
 297 -44 367 -77 367 -173 c 0
 367 -268 284 -313 187 -313 c 0
 94 -313 16 -265 16 -154 c 1
 119 -154 l 1
 119 -198 152 -217 189 -217 c 0
 229 -217 258 -192 258 -156 c 0
 258 -107 218 -96 167 -96 c 2
 135 -96 l 1xd9
 135 -44 l 17xb9
135 -73 m 9
 135 -8 l 1
 167 -8 l 2
 218 -8 253 6 253 49 c 0
 253 82 228 102 192 102 c 4
 156 102 126 83 126 38 c 5
 23 38 l 5
 23 142 98 198 190 198 c 4
 287 198 359 147 359 59 c 0xd6
 359 -30 298 -73 192 -73 c 2
 135 -73 l 9
EndSplineSet
EndChar

StartChar: four.inferior
Encoding: 8324 8324 195
Width: 422
HStem: -190 89<109 399>
VStem: 224 110<-300 69>
LayerCount: 2
Fore
SplineSet
218 187 m 5
 334 187 l 5
 334 -300 l 5
 224 -300 l 5
 224 69 l 5
 109 -101 l 5
 399 -101 l 5
 399 -190 l 5
 13 -190 l 5
 13 -112 l 5
 218 187 l 5
EndSplineSet
EndChar

StartChar: five.inferior
Encoding: 8325 8325 196
Width: 403
HStem: -305 95<134.38 247.635> -46 86<131.266 246.291> 97 90<131 344>
VStem: 16 103<-191.739 -147> 36 95<26 97> 269 104<-190.398 -67.5987>
LayerCount: 2
Fore
SplineSet
191 -305 m 0xec
 94 -305 16 -250 16 -147 c 1
 119 -147 l 1xf4
 119 -191 153 -210 194 -210 c 0
 238 -210 269 -185 269 -127 c 0
 269 -76 240 -46 182 -46 c 0
 125 -46 110 -76 110 -76 c 9
 36 -76 l 1
 36 187 l 25
 344 187 l 1
 344 97 l 1
 131 97 l 1
 131 26 l 17
 131 26 154 40 209 40 c 0
 311 40 373 -28 373 -129 c 0
 373 -251 294 -305 191 -305 c 0xec
EndSplineSet
EndChar

StartChar: six.inferior
Encoding: 8326 8326 197
Width: 391
HStem: -313 90<144.824 253.37> -74 90<144.298 253.766> 106 92<148.842 249.533>
VStem: 20 109<-206.663 -88.5708 -21 87.7246> 261 104<46 95.2157> 267 108<-206.962 -88.9648>
LayerCount: 2
Fore
SplineSet
375 -161 m 2xf4
 375 -247 316 -313 197 -313 c 0
 77 -313 20 -251 20 -133 c 2
 20 23 l 2
 20 121 77 198 198 198 c 0
 304 198 365 141 365 46 c 1
 261 46 l 1xf8
 261 83 242 106 199 106 c 0
 145 106 129 67 129 14 c 2
 129 -21 l 1
 129 -21 153 16 219 16 c 0
 317 16 375 -50 375 -134 c 2
 375 -161 l 2xf4
131 -155 m 2
 131 -194 149 -223 199 -223 c 0
 249 -223 267 -194 267 -155 c 2
 267 -140 l 2xf4
 267 -102 249 -74 199 -74 c 4
 149 -74 131 -102 131 -140 c 2
 131 -155 l 2
EndSplineSet
EndChar

StartChar: seven.inferior
Encoding: 8327 8327 198
Width: 340
HStem: 97 90<23 220>
VStem: 23 294<104 187>
LayerCount: 2
Fore
SplineSet
53 -300 m 1
 220 97 l 1
 23 97 l 1
 23 187 l 1
 317 187 l 1
 317 104 l 1
 164 -300 l 1
 53 -300 l 1
EndSplineSet
EndChar

StartChar: eight.inferior
Encoding: 8328 8328 199
Width: 390
HStem: -313 94<136.974 253.275> -97 93<143.25 246.875> 105 93<142.684 247.691>
VStem: 17 109<-208.396 -107.896> 27 107<6.89062 95.7891> 257 107<6.89062 95.7891> 265 109<-204.987 -108.087>
LayerCount: 2
Fore
SplineSet
195 105 m 0xec
 150 105 134 83 134 57 c 2
 134 44 l 2
 134 21 152 -4 195 -4 c 0
 237 -4 257 21 257 44 c 2
 257 57 l 2
 257 83 240 105 195 105 c 0xec
195 -219 m 0
 240 -219 265 -201 265 -165 c 2
 265 -151 l 2
 265 -115 240 -97 195 -97 c 0
 149 -97 126 -115 126 -151 c 2
 126 -165 l 2xf2
 126 -201 149 -219 195 -219 c 0
195 198 m 0
 315 198 364 143 364 69 c 2
 364 59 l 2xec
 364 -26 291 -45 291 -45 c 1
 291 -45 374 -65 374 -154 c 2
 374 -180 l 2
 374 -259 316 -313 195 -313 c 0
 74 -313 17 -259 17 -180 c 2
 17 -154 l 2xf2
 17 -65 99 -45 99 -45 c 1
 99 -45 27 -26 27 59 c 2
 27 69 l 2xe8
 27 143 75 198 195 198 c 0
EndSplineSet
EndChar

StartChar: nine.inferior
Encoding: 8329 8329 200
Width: 391
HStem: -313 91<144.704 246.158> -135 90<141.234 250.487> 107 91<142.107 249.961>
VStem: 20 108<-30.5715 90.5183> 30 104<-210.635 -167> 266 109<-202.725 -98 -30.5129 91.532>
LayerCount: 2
Fore
SplineSet
20 44 m 2xf4
 20 131 79 198 198 198 c 0
 318 198 375 136 375 19 c 2
 375 -138 l 2
 375 -236 318 -313 197 -313 c 0
 91 -313 30 -258 30 -167 c 1
 134 -167 l 1xec
 134 -201 153 -222 196 -222 c 0
 250 -222 266 -184 266 -133 c 2
 266 -98 l 1
 266 -98 242 -135 176 -135 c 0
 78 -135 20 -69 20 14 c 2
 20 44 l 2xf4
265 38 m 2
 265 77 246 107 196 107 c 0
 146 107 128 77 128 38 c 2
 128 20 l 2xf4
 128 -17 146 -45 196 -45 c 4
 246 -45 265 -17 265 20 c 2
 265 38 l 2
EndSplineSet
EndChar

StartChar: uni01B7
Encoding: 439 439 201
Width: 558
Flags: W
HStem: -10 127<202.944 353.514> 613 118<55 357.3>
VStem: 388.1 145<151.57 296.71>
LayerCount: 2
Back
SplineSet
342.95703125 428.321289062 m 5
 447.192729164 413.408646678 513.099609375 348.574591011 513.099609375 221 c 4
 513.099609375 59.2261051786 397.024203939 -10 261.900390625 -10 c 4
 132.924804688 -10 24 59 24 219 c 5
 162.900390625 219 l 5
 162.900390625 148 211.432617188 117 265.823242188 117 c 4
 325.732193064 117 368.099609375 143.2 368.099609375 227 c 4
 368.099609375 315.24742268 309.599388021 334 233.099609375 334 c 6
 185.400390625 334 l 5
 185.400390625 432 l 5
 337.299804688 613 l 5
 55 613 l 5
 55 731 l 5
 498 731 l 5
 498 613 l 5
 342.95703125 428.321289062 l 5
EndSplineSet
Fore
SplineSet
352.95703125 428.321289062 m 5
 463.319102648 413.408646678 533.099609375 348.574591011 533.099609375 221 c 0
 533.099609375 59.2261051786 412.403353364 -10 271.900390625 -10 c 0
 137.503393416 -10 24 59 24 219 c 1
 162.900390625 219 l 1
 162.900390625 148 216.148015744 117 275.823242188 117 c 0
 341.589748678 117 388.099609375 143.2 388.099609375 227 c 0
 388.099609375 315.24742268 329.599388021 334 253.099609375 334 c 2
 185.400390625 334 l 1
 185.400390625 432 l 1
 357.299804688 613 l 1
 55 613 l 1
 55 731 l 1
 518 731 l 1
 518 613 l 1
 352.95703125 428.321289062 l 5
EndSplineSet
EndChar

StartChar: uni0292
Encoding: 658 658 202
Width: 528
Flags: W
HStem: -188.994 114<191.979 330.457> 446.934 108<55 343.3>
VStem: 24 131.9<-40.0121 40.0059> 369.1 134<-34.9929 117.716>
LayerCount: 2
Fore
SplineSet
332.95703125 249.327148438 m 1
 437.192729164 234.414506053 503.099609375 169.580450386 503.099609375 42.005859375 c 0
 503.099609375 -119.768035446 388.872544169 -188.994140625 255.900390625 -188.994140625 c 0
 130.177651451 -188.994140625 24 -119.994140625 24 40.005859375 c 1
 155.900390625 40.005859375 l 5
 155.900390625 -40.0431602328 195.184733174 -74.994140625 259.823242188 -74.994140625 c 0
 323.832481994 -74.994140625 369.099609375 -45.6977769886 369.099609375 48.005859375 c 0
 369.099609375 136.253282055 310.166053048 155.005859375 233.099609375 155.005859375 c 2
 185.400390625 155.005859375 l 1
 185.400390625 239.005859375 l 1
 343.299804688 446.93359375 l 1
 55 446.93359375 l 1
 55 554.93359375 l 1
 488 554.93359375 l 1
 488 447.010742188 l 1
 332.95703125 249.327148438 l 1
EndSplineSet
EndChar

StartChar: tilde
Encoding: 732 732 203
Width: 371
Flags: W
HStem: 589.373 85.5752<211.726 280.876> 653.417 85.5752<93.9797 163.472>
LayerCount: 2
Fore
SplineSet
259.586914062 589.373046875 m 0x80
 186.486328125 589.373046875 159.661132812 653.416992188 120.920898438 653.416992188 c 0
 88.798828125 653.416992188 87.31640625 607.6953125 87.31640625 607.6953125 c 1
 10 625.236328125 l 1
 10 625.236328125 20.2841796875 738.9921875 111.6640625 738.9921875 c 0x40
 193.173828125 738.9921875 213.626953125 674.948242188 253.752929688 674.948242188 c 0
 285.915039062 674.948242188 288.041992188 722.724609375 288.041992188 722.724609375 c 1
 361.250976562 705.18359375 l 1
 361.250976562 705.18359375 351.68359375 589.373046875 259.586914062 589.373046875 c 0x80
EndSplineSet
EndChar

StartChar: hungarumlaut
Encoding: 733 733 204
Width: 420
Flags: W
HStem: 565 166
LayerCount: 2
Fore
SplineSet
279 565 m 5
 191 565 l 5
 281 731 l 5
 419 731 l 5
 279 565 l 5
89 565 m 1
 1 565 l 1
 91 731 l 1
 229 731 l 1
 89 565 l 1
EndSplineSet
EndChar

StartChar: ogonek
Encoding: 731 731 205
Width: 289
Flags: W
HStem: -248.1 69.71<123.787 235.984>
VStem: 30 85.4102<-170.45 -64.2771>
LayerCount: 2
Fore
SplineSet
204.970703125 19.080078125 m 1
 123.970703125 19.080078125 l 1
 123.970703125 19.080078125 30 -49 30 -144.120117188 c 0
 30 -217.102539062 73.25 -248.099609375 158.700195312 -248.099609375 c 0
 235.025390625 -248.099609375 271.020507812 -209.490234375 271.020507812 -209.490234375 c 1
 231.240234375 -150.309570312 l 1
 231.240234375 -150.309570312 210.458984375 -178.389648438 167.870117188 -178.389648438 c 0
 136.366210938 -178.389648438 115.41015625 -164.376953125 115.41015625 -126 c 0
 115.41015625 -63 204.970703125 19.080078125 204.970703125 19.080078125 c 1
EndSplineSet
EndChar

StartChar: ring
Encoding: 730 730 206
Width: 308
Flags: W
HStem: 505.762 70.4619<116.357 194.537> 668.53 70.4619<116.357 194.537>
VStem: 30 80.5537<580.919 664.173> 199.034 80.5537<580.919 664.173>
LayerCount: 2
Fore
SplineSet
279.587890625 622.876953125 m 0
 279.587890625 555.073501302 240.066134862 505.76171875 154.383789062 505.76171875 c 0
 68.894444241 505.76171875 30 555.073501302 30 622.876953125 c 0
 30 690.10174657 68.8944574086 738.9921875 154.383789062 738.9921875 c 0
 240.065879953 738.9921875 279.587890625 690.10174657 279.587890625 622.876953125 c 0
199.034179688 622.877929688 m 0
 199.034179688 649.71552168 187.558801446 668.53027343 154.793945312 668.530273438 c 0
 122.027938983 668.530273438 110.553710938 649.715086314 110.553710938 622.875976562 c 0
 110.553710938 595.096155086 122.027986952 576.223632821 154.793945312 576.223632812 c 0
 187.558924434 576.223632812 199.034179688 595.096990471 199.034179688 622.877929688 c 0
EndSplineSet
EndChar

StartChar: dotaccent
Encoding: 729 729 207
Width: 216
Flags: W
HStem: 645 126<40 176>
VStem: 40 136<645 771>
LayerCount: 2
Fore
SplineSet
40 645 m 1
 40 771 l 1
 176 771 l 1
 176 645 l 1
 40 645 l 1
EndSplineSet
EndChar

StartChar: breve
Encoding: 728 728 208
Width: 320
Flags: W
HStem: 584.367 92.4478<107.815 214.646> 711 20G<1 89 231 319>
VStem: 1 318
LayerCount: 2
Fore
SplineSet
231 731 m 1
 319 731 l 1
 319 731 309 584.366666667 160 584.366666667 c 0
 8 584.366666667 1 731 1 731 c 1
 89 731 l 1
 89 731 96.9998868048 676.814453125 160 676.814453125 c 0
 224 676.814453125 231 731 231 731 c 1
EndSplineSet
EndChar

StartChar: germandbls
Encoding: 223 223 209
Width: 573
Flags: W
HStem: 0 113<301.648 374.042> 324 140<278.28 362.397> 650 121<235.565 362.298>
VStem: 73.8704 136<556 622.051> 390.98 137.301<493.447 622.686> 406.98 141.301<145.27 284.591>
LayerCount: 2
Fore
SplineSet
395.581054688 389 m 1xf4
 395.581054688 389 528.28125 412 528.28125 571.418945312 c 0
 528.28125 698.724274413 434.928890663 771 301.6484375 771 c 0
 133.483422663 771 73.8700410504 695.079991319 73.8701171875 556 c 2
 73.8704028021 0 l 1
 209.870402802 0 l 1
 209.870117188 556 l 18
 209.870075926 624.044771021 245.282543717 650 297.6484375 650 c 0
 357.252159748 650 390.98046875 616.620513614 390.98046875 562 c 0xf8
 390.98046875 488.23655914 355.706198488 464 278.280273438 464 c 1
 278.280273438 324 l 1
 354.779960075 324 406.98046875 296.795698925 406.98046875 214 c 0
 406.98046875 151.310546875 372.806640625 113 301.6484375 113 c 2
 260 113 l 1
 260 0 l 1
 321.6484375 0 l 2
 451.549466184 -1.59077625095e-14 548.28125 73 548.28125 201.581054688 c 0
 548.28125 362.719554008 395.581054688 389 395.581054688 389 c 1xf4
EndSplineSet
EndChar
